<svg xmlns="http://www.w3.org/2000/svg" width="408" height="105" viewBox="0 0 408 105">
  <g id="aob-logo1-w" transform="translate(-13712 11950)">
    <rect id="Rectangle_58079" data-name="Rectangle 58079" width="408" height="105" transform="translate(13712 -11950)" opacity="0"/>
    <path id="Path_25774" data-name="Path 25774" d="M36.6-62.035V-72.96H1.829v10.925H12.564V0h13.3V-62.035ZM71.559,0V-72.96H58.449v27.74h-6.46V-72.96H38.879V0h13.11V-34.3h6.46V0Zm33.63,0V-10.925H89.324V-32.11h12.255V-42.275H89.324v-19.76h13.87V-72.96H76.5V0Zm55.67,0L148.6-73.53h-12.54L125.709,0h11.875l1.33-11.78h6.46L146.7,0Zm-16.53-19.855h-4.465s.855-8.55,1.33-14.06c.285-3.325.475-9.69.665-16.91.38,7.03.475,13.3.855,16.72C143.284-28.595,144.329-19.855,144.329-19.855ZM195.914,0V-72.96H184.229v14.25c0,7.315.1,16.15.475,23.275-.57-3.135-1.52-6.935-2.755-11.59-1.425-5.13-6.935-25.935-6.935-25.935h-11.97V0h12.065V-18.62c0-8.55-.1-11.4-.665-21.185a108.258,108.258,0,0,0,2.85,12.825C178.624-22.515,185.179,0,185.179,0Zm37.43,0L221.089-73.53h-12.54L198.194,0h11.875l1.33-11.78h6.46L219.189,0Zm-16.53-19.855h-4.465s.855-8.55,1.33-14.06c.285-3.325.475-9.69.665-16.91.38,7.03.475,13.3.855,16.72C215.769-28.595,216.814-19.855,216.814-19.855Zm44.816-42.18V-72.96H226.86v10.925H237.6V0h13.3V-62.035ZM296.3-36.385c0-32.015-4.655-37.715-17.1-37.715s-17.1,5.7-17.1,37.715c0,33.06,5.985,37.9,17.1,37.9C291.175,1.52,296.3-4.94,296.3-36.385Zm-13.49,0c0,13.3-.1,18.335-.475,23.56-.475,5.7-1.14,6.175-3.135,6.175-2.185,0-2.945-.57-3.42-6.175-.38-5.13-.285-10.26-.285-23.56,0-11.4-.1-18.62.285-23.75.475-5.32,1.33-6.365,3.42-6.365,1.9,0,2.755,1.045,3.135,6.365C282.815-54.91,282.815-47.88,282.815-36.385ZM343.425,0V-72.96h-15.77c-.665,4.94-2.565,16.245-4.275,26.98-.855,5.035-1.425,15.295-1.425,15.295s-.57-10.165-1.425-15.39c-1.8-10.64-3.895-21.755-4.75-26.885H300.485V0h11.59V-11.685c0-16.34-.38-41.8-.38-41.8s1.995,20.615,3.515,33.82C316.065-12.065,317.3,0,317.3,0h9.31s1.14-12.065,1.9-19.665c1.33-13.11,3.325-33.82,3.325-33.82s-.285,25.46-.285,41.8V0ZM382.28-72.96H369.835L364.23-45.6l-6.175-27.36h-13.68l12.54,44.65V0h13.3V-28.31Z" transform="translate(13725 -11861)" fill="#fff"/>
  </g>
</svg>
