<svg xmlns="http://www.w3.org/2000/svg" width="336" height="105" viewBox="0 0 336 105">
  <g id="aob-logo2-w" transform="translate(-14178 11950)">
    <rect id="Rectangle_58080" data-name="Rectangle 58080" width="336" height="105" transform="translate(14178 -11950)" opacity="0"/>
    <path id="Path_25775" data-name="Path 25775" d="M-268.61-36.385c0-32.015-4.655-37.715-17.1-37.715s-17.1,5.7-17.1,37.715c0,33.06,5.985,37.9,17.1,37.9C-273.74,1.52-268.61-4.94-268.61-36.385Zm-13.49,0c0,13.3-.1,18.335-.475,23.56-.475,5.7-1.14,6.175-3.135,6.175-2.185,0-2.945-.57-3.42-6.175-.38-5.13-.285-10.26-.285-23.56,0-11.4-.1-18.62.285-23.75.475-5.32,1.33-6.365,3.42-6.365,1.9,0,2.755,1.045,3.135,6.365C-282.1-54.91-282.1-47.88-282.1-36.385Zm43.7-25.65V-72.96h-26.03V0h13.11V-31.065h11.21v-10.45h-11.21v-20.52Zm57.475,41.42c0-11.875-4.845-18.24-11.115-18.24,5.8-.285,9.025-5.13,9.025-14.06,0-12.445-3.325-20.045-15.96-20.045H-215.41V0h16.34C-187.67,0-180.925-5.51-180.925-20.615Zm-14.535-32.11c0,6.27-.665,9.31-4.085,9.31h-3.23V-64.41h2.28C-196.315-64.41-195.46-61.275-195.46-52.725Zm.95,30.685c0,11.115-1.045,13.49-4.94,13.49h-3.325V-34.3h3.135C-195.46-34.3-194.51-30.115-194.51-22.04ZM-164.11,0V-72.96h-13.68V0Zm36.955-62.035V-72.96h-34.77v10.925h10.735V0h13.3V-62.035Zm32.11,41.61a116.528,116.528,0,0,0-.57-11.78l-11.78-.19c.38,3.895.665,8.265.665,11.4,0,10.83-.38,13.3-3.04,13.3-3.04,0-3.99-2.945-3.99-28.025,0-26.7.95-29.64,3.42-29.64,2.375,0,3.04,1.9,3.04,8.36,0,3.61-.38,9.215-.57,13.11l11.4-.38a109.822,109.822,0,0,0,.665-11.4c0-11.685-3.42-18.43-14.63-18.43-13.3,0-16.91,9.12-16.91,41.8,0,29.45,5.13,33.535,17.1,33.535C-99.51,1.235-95.045-6.27-95.045-20.425Zm36.955-15.96c0-32.015-4.655-37.715-17.1-37.715s-17.1,5.7-17.1,37.715c0,33.06,5.985,37.9,17.1,37.9C-63.22,1.52-58.09-4.94-58.09-36.385Zm-13.49,0c0,13.3-.1,18.335-.475,23.56-.475,5.7-1.14,6.175-3.135,6.175-2.185,0-2.945-.57-3.42-6.175-.38-5.13-.285-10.26-.285-23.56,0-11.4-.1-18.62.285-23.75.475-5.32,1.33-6.365,3.42-6.365,1.9,0,2.755,1.045,3.135,6.365C-71.58-54.91-71.58-47.88-71.58-36.385ZM-41.23,0V-72.96H-54.91V0ZM-3.42,0V-72.96H-15.1v14.25c0,7.315.095,16.15.475,23.275-.57-3.135-1.52-6.935-2.755-11.59C-18.81-52.155-24.32-72.96-24.32-72.96H-36.29V0h12.065V-18.62c0-8.55-.1-11.4-.665-21.185A108.258,108.258,0,0,0-22.04-26.98C-20.71-22.515-14.155,0-14.155,0Z" transform="translate(14498 -11861)" fill="#fff"/>
  </g>
</svg>
