<svg width="755" height="106" viewBox="0 0 755 106" fill="none" xmlns="http://www.w3.org/2000/svg">
<path d="M549.725 20.0222C552.875 20.0222 555.789 20.53 558.467 21.5457C561.225 22.5613 563.587 23.9676 565.556 25.7645C567.604 27.4834 569.179 29.5147 570.282 31.8585C571.384 34.2022 571.936 36.7023 571.936 39.3587C571.936 42.3275 571.62 44.9838 570.991 47.3277C570.36 49.6714 569.296 51.9371 567.8 54.1247C566.304 56.3123 564.296 58.5389 561.776 60.8046C559.334 63.0702 556.301 65.6095 552.678 68.422C550.551 70.0626 548.385 71.6253 546.18 73.1097C544.054 74.5941 541.928 76.1176 539.801 77.6801C537.753 79.2426 535.744 80.9223 533.775 82.7193C531.806 84.438 529.956 86.3912 528.224 88.5788H563.43L559.885 103.11H505.422C506.13 98.1884 507.352 93.9306 509.083 90.3366C510.817 86.7428 512.944 83.5006 515.464 80.6099C518.063 77.641 520.976 74.9065 524.206 72.4064C527.435 69.8283 530.941 67.0938 534.721 64.2032C538.265 61.4686 541.258 59.1248 543.699 57.1717C546.219 55.1403 548.229 53.3044 549.725 51.6636C551.301 49.9449 552.442 48.3433 553.151 46.8589C553.86 45.3745 554.215 43.812 554.215 42.1712C554.215 40.1399 553.467 38.4602 551.969 37.132C550.551 35.7257 548.701 35.0226 546.416 35.0226C543.188 35.0226 540.037 35.7257 536.965 37.132C533.894 38.4602 530.546 40.4915 526.923 43.2259L520.898 30.4522C525.624 26.6239 530.349 23.9286 535.076 22.3659C539.801 20.8034 544.684 20.0222 549.725 20.0222Z" fill="#FF9500"/>
<path d="M594.779 89.7507C597.3 89.7507 599.623 89.0086 601.75 87.5241C603.876 86.0397 605.728 84.0865 607.302 81.6646C608.957 79.2426 610.373 76.5081 611.556 73.4611C612.816 70.3361 613.84 67.172 614.627 63.9687C615.414 60.7655 616.006 57.6404 616.4 54.5934C616.793 51.5465 616.99 48.8511 616.99 46.5073C616.99 42.5228 616.36 39.593 615.1 37.7179C613.918 35.843 612.068 34.9055 609.547 34.9055C606.947 34.9055 604.585 35.6476 602.459 37.132C600.332 38.6164 598.441 40.5696 596.788 42.9916C595.134 45.4135 593.677 48.187 592.417 51.3122C591.235 54.4372 590.251 57.6013 589.462 60.8046C588.675 64.0078 588.085 67.1329 587.691 70.1799C587.296 73.2268 587.1 75.9222 587.1 78.266C587.1 82.3286 587.73 85.2584 588.991 87.0554C590.251 88.8522 592.181 89.7507 594.779 89.7507ZM592.062 104.751C588.202 104.751 584.934 104.087 582.256 102.759C579.579 101.353 577.373 99.5166 575.641 97.2509C573.987 94.9853 572.766 92.4462 571.977 89.6335C571.27 86.7428 570.915 83.774 570.915 80.727C570.915 71.8205 571.899 63.6563 573.868 56.2342C575.916 48.8121 578.712 42.4056 582.256 37.0149C585.88 31.6241 590.212 27.4443 595.253 24.4755C600.293 21.5066 605.885 20.0222 612.029 20.0222C615.887 20.0222 619.156 20.7253 621.834 22.1316C624.512 23.4598 626.678 25.2567 628.332 27.5224C630.065 29.788 631.285 32.3663 631.994 35.2569C632.782 38.0696 633.176 40.9993 633.176 44.0463C633.176 52.9528 632.151 61.117 630.104 68.5391C628.135 75.9612 625.338 82.3676 621.715 87.7584C618.172 93.1492 613.879 97.329 608.838 100.298C603.798 103.267 598.206 104.751 592.062 104.751Z" fill="#FF9500"/>
<path d="M672.205 20.0222C675.355 20.0222 678.269 20.53 680.947 21.5457C683.703 22.5613 686.068 23.9676 688.035 25.7645C690.084 27.4834 691.66 29.5147 692.762 31.8585C693.865 34.2022 694.416 36.7023 694.416 39.3587C694.416 42.3275 694.1 44.9838 693.471 47.3277C692.84 49.6714 691.777 51.9371 690.281 54.1247C688.785 56.3123 686.775 58.5389 684.255 60.8046C681.814 63.0702 678.781 65.6095 675.158 68.422C673.032 70.0626 670.866 71.6253 668.661 73.1097C666.534 74.5941 664.407 76.1176 662.282 77.6801C660.233 79.2426 658.225 80.9223 656.256 82.7193C654.286 84.438 652.436 86.3912 650.703 88.5788H685.91L682.365 103.11H627.902C628.611 98.1884 629.832 93.9306 631.564 90.3366C633.297 86.7428 635.424 83.5006 637.944 80.6099C640.543 77.641 643.457 74.9065 646.686 72.4064C649.915 69.8283 653.42 67.0938 657.2 64.2032C660.745 61.4686 663.739 59.1248 666.179 57.1717C668.7 55.1403 670.708 53.3044 672.205 51.6636C673.78 49.9449 674.923 48.3433 675.632 46.8589C676.34 45.3745 676.695 43.812 676.695 42.1712C676.695 40.1399 675.946 38.4602 674.449 37.132C673.032 35.7257 671.181 35.0226 668.897 35.0226C665.667 35.0226 662.517 35.7257 659.446 37.132C656.374 38.4602 653.026 40.4915 649.403 43.2259L643.379 30.4522C648.104 26.6239 652.829 23.9286 657.555 22.3659C662.282 20.8034 667.165 20.0222 672.205 20.0222Z" fill="#FF9500"/>
<path d="M738.052 59.9842C741.36 61.5467 743.921 63.9687 745.732 67.2501C747.543 70.4532 748.449 73.969 748.449 77.7972C748.449 81.0005 747.779 84.2037 746.441 87.4068C745.101 90.6101 742.974 93.5009 740.06 96.079C737.147 98.6572 733.446 100.767 728.956 102.407C724.466 103.97 719.071 104.751 712.77 104.751C703.791 104.751 695.718 102.915 688.552 99.2431L694.931 85.4146C697.215 86.9773 700.05 88.2663 703.437 89.2819C706.824 90.2195 710.289 90.6882 713.834 90.6882C716.039 90.6882 718.165 90.4539 720.213 89.9851C722.34 89.5164 724.19 88.735 725.766 87.6413C727.341 86.5475 728.601 85.1412 729.546 83.4223C730.491 81.7036 730.964 79.5942 730.964 77.0942C730.964 73.8909 729.624 71.4689 726.948 69.8283C724.348 68.1876 720.844 67.3673 716.432 67.3673H708.871L712.297 53.5387H720.803C722.458 53.5387 724.19 53.3825 726.002 53.0699C727.813 52.7575 729.467 52.2106 730.964 51.4293C732.46 50.5699 733.681 49.4761 734.626 48.1479C735.651 46.7417 736.163 44.9448 736.163 42.7571C736.163 40.0227 735.216 38.0305 733.327 36.7804C731.436 35.4523 728.956 34.7882 725.884 34.7882C723.442 34.7882 720.725 35.2179 717.731 36.0773C714.818 36.9367 711.785 38.1867 708.635 39.8275L704.146 26.702C708.004 24.5145 711.982 22.8738 716.078 21.78C720.174 20.6081 724.427 20.0222 728.837 20.0222C733.011 20.0222 736.673 20.6081 739.825 21.78C742.974 22.8738 745.574 24.3582 747.622 26.2333C749.748 28.1083 751.324 30.2568 752.347 32.6788C753.371 35.0226 753.884 37.4446 753.884 39.9446C753.884 41.9759 753.529 44.0072 752.82 46.0385C752.191 47.9917 751.205 49.8668 749.867 51.6636C748.607 53.3825 746.952 54.9841 744.904 56.4685C742.935 57.8748 740.652 59.0467 738.052 59.9842Z" fill="#FF9500"/>
<path d="M53.1043 102.719C81.0159 102.719 103.643 80.1057 103.643 52.2108C103.643 24.3159 81.0159 1.70264 53.1043 1.70264C25.1929 1.70264 2.56616 24.3159 2.56616 52.2108C2.56616 80.1057 25.1929 102.719 53.1043 102.719Z" fill="white"/>
<path d="M103.725 65.3563C96.6923 93.5483 68.1214 110.706 39.9092 103.675C11.7085 96.6466 -5.45903 68.091 1.57715 39.9005C8.60675 11.7051 37.1777 -5.45393 65.3816 1.5748C93.5906 8.6035 110.757 37.1623 103.725 65.3563ZM75.8669 45.1285C76.915 38.1261 71.5803 34.3617 64.2858 31.8506L66.652 22.3649L60.8746 20.9259L58.571 30.1616C57.052 29.7833 55.4922 29.4266 53.9422 29.073L56.2623 19.7764L50.4882 18.3374L48.1203 27.8198C46.8632 27.5336 45.6289 27.2508 44.4311 26.9531L44.4377 26.9236L36.4701 24.9354L34.9332 31.1024C34.9332 31.1024 39.2198 32.0841 39.1292 32.1449C41.4692 32.7288 41.892 34.2762 41.8213 35.503L39.126 46.3093C39.2872 46.3503 39.4961 46.4096 39.7265 46.5016C39.5341 46.4539 39.3284 46.4014 39.1161 46.3503L35.338 61.4882C35.0517 62.1987 34.326 63.2644 32.6904 62.8598C32.748 62.9436 28.491 61.8122 28.491 61.8122L25.623 68.4216L33.1413 70.2947C34.5399 70.645 35.9106 71.0118 37.26 71.3571L34.869 80.9512L40.6398 82.3902L43.0076 72.898C44.5841 73.3256 46.1145 73.7202 47.6119 74.0919L45.2521 83.5397L51.0295 84.9787L53.4205 75.4027C63.2721 77.2659 70.6801 76.5143 73.7984 67.6092C76.3111 60.4391 73.6733 56.303 68.4901 53.606C72.2648 52.7361 75.1066 50.2545 75.8669 45.1285ZM62.6665 63.6278C60.8812 70.798 48.8015 66.9219 44.8852 65.9499L48.0578 53.2393C51.974 54.2162 64.5325 56.1502 62.6665 63.6278ZM64.4536 45.0249C62.8245 51.5471 52.7705 48.2333 49.5092 47.4209L52.3854 35.8929C55.6469 36.7052 66.1501 38.2215 64.4536 45.0249Z" fill="#FF9500"/>
<path d="M154.294 31.8493C158.563 31.8493 162.253 32.614 165.352 34.1154C168.467 35.6317 171.038 37.6743 173.099 40.2429C175.134 42.8249 176.648 45.8427 177.625 49.3011C178.596 52.7693 179.083 56.4975 179.083 60.4888C179.083 66.6196 177.958 72.4117 175.689 77.8715C173.42 83.3396 170.341 88.0823 166.425 92.1278C162.512 96.1685 157.891 99.354 152.563 101.707C147.243 104.062 141.46 105.24 135.25 105.24C134.446 105.24 133.035 105.217 131.04 105.176C129.046 105.134 126.754 104.929 124.187 104.582C121.603 104.222 118.872 103.689 115.987 102.975C113.104 102.275 110.366 101.293 107.788 100.046L130.845 3.22304L151.496 0.0244141L143.239 34.3835C145.008 33.5877 146.788 32.9709 148.565 32.522C150.344 32.0795 152.252 31.8493 154.294 31.8493ZM136.971 88.8668C140.081 88.8668 143.012 88.1021 145.764 86.6006C148.526 85.0975 150.908 83.0682 152.904 80.5405C154.901 78.0014 156.48 75.1416 157.632 71.9463C158.783 68.7509 159.367 65.4175 159.367 61.9491C159.367 57.6882 158.653 54.3646 157.234 51.9619C155.813 49.5691 153.186 48.3653 149.37 48.3653C148.12 48.3653 146.508 48.6038 144.511 49.0296C142.507 49.482 140.712 50.421 139.105 51.8336L130.315 88.3224C130.845 88.4162 131.313 88.505 131.713 88.5888C132.105 88.6794 132.538 88.7435 132.969 88.7879C133.425 88.8389 133.946 88.8651 134.577 88.8651C135.207 88.8651 135.995 88.8668 136.971 88.8668Z" fill="white"/>
<path d="M200.503 103.384H180.779L197.436 33.3317H217.296L200.503 103.384ZM210.102 24.7966C207.349 24.7966 204.852 23.9776 202.637 22.3364C200.404 20.705 199.299 18.1938 199.299 14.8093C199.299 12.9478 199.677 11.2013 200.428 9.55344C201.19 7.90891 202.185 6.49299 203.433 5.2892C204.678 4.09527 206.121 3.14142 207.76 2.42277C209.409 1.71562 211.163 1.36206 213.033 1.36206C215.783 1.36206 218.266 2.18105 220.489 3.82228C222.704 5.47175 223.819 7.98293 223.819 11.3493C223.819 13.2175 223.442 14.9706 222.685 16.6151C221.932 18.2596 220.937 19.6756 219.69 20.8794C218.455 22.0749 216.998 23.0254 215.362 23.7375C213.712 24.4562 211.964 24.7966 210.102 24.7966Z" fill="white"/>
<path d="M234.575 15.8766L255.235 12.678L250.162 33.3267H272.287L268.292 49.5714H246.299L240.442 74.0748C239.902 76.1174 239.596 78.025 239.509 79.7978C239.413 81.5788 239.638 83.1082 240.171 84.3958C240.701 85.6868 241.654 86.6818 243.036 87.3856C244.412 88.101 246.381 88.4612 248.964 88.4612C251.093 88.4612 253.166 88.2588 255.17 87.8576C257.163 87.4629 259.183 86.9136 261.226 86.1951L262.697 101.384C260.031 102.361 257.145 103.201 254.034 103.908C250.92 104.625 247.232 104.971 242.97 104.971C236.842 104.971 232.092 104.061 228.708 102.251C225.328 100.427 222.938 97.9352 221.508 94.7811C220.099 91.6384 219.468 88.0155 219.644 83.9338C219.826 79.8422 220.443 75.5418 221.508 71.0128L234.575 15.8766Z" fill="white"/>
<path d="M271.42 75.4123C271.42 69.3785 272.397 63.6884 274.351 58.3617C276.301 53.0302 279.109 48.368 282.754 44.3668C286.385 40.3854 290.81 37.2312 296.019 34.9157C301.202 32.6134 307.006 31.4524 313.402 31.4524C317.406 31.4524 320.981 31.8306 324.127 32.5887C327.286 33.3534 330.144 34.3419 332.73 35.5818L325.927 51.0404C324.15 50.3201 322.305 49.6852 320.398 49.1096C318.49 48.5226 316.159 48.2397 313.403 48.2397C306.819 48.2397 301.615 50.5076 297.741 55.0283C293.882 59.5524 291.939 65.6421 291.939 73.281C291.939 77.8083 292.916 81.469 294.878 84.2697C296.829 87.0703 300.436 88.4632 305.669 88.4632C308.252 88.4632 310.746 88.1936 313.134 87.6673C315.54 87.1345 317.664 86.4635 319.534 85.6708L321.008 101.518C318.512 102.485 315.762 103.358 312.743 104.123C309.719 104.861 306.118 105.244 301.944 105.244C296.433 105.244 291.768 104.438 287.952 102.851C284.134 101.24 280.98 99.1001 278.496 96.3899C275.998 93.6731 274.205 90.5008 273.095 86.8598C271.986 83.2222 271.42 79.4002 271.42 75.4123Z" fill="white"/>
<path d="M359.039 105.244C354.332 105.244 350.243 104.527 346.774 103.108C343.316 101.689 340.451 99.697 338.184 97.1151C335.915 94.5464 334.218 91.5024 333.054 87.9946C331.89 84.4884 331.331 80.6057 331.331 76.3513C331.331 71.0148 332.189 65.6799 333.921 60.3598C335.646 55.0283 338.205 50.2378 341.591 45.9801C344.951 41.7158 349.096 38.2294 353.976 35.5111C358.852 32.8107 364.46 31.4524 370.759 31.4524C375.382 31.4524 379.45 32.171 382.965 33.5902C386.465 35.0062 389.348 37.0142 391.627 39.5829C393.882 42.1648 395.595 45.1957 396.746 48.7085C397.907 52.208 398.479 56.1006 398.479 60.3583C398.479 65.6783 397.634 71.0131 395.955 76.3497C394.275 81.6598 391.782 86.4619 388.491 90.7294C385.206 94.9871 381.099 98.4719 376.166 101.179C371.24 103.886 365.526 105.244 359.039 105.244ZM368.898 48.2414C365.974 48.2414 363.389 49.09 361.176 50.7657C358.954 52.4612 357.088 54.5925 355.584 57.163C354.064 59.7449 352.937 62.5603 352.175 65.6208C351.42 68.6878 351.05 71.5871 351.05 74.3417C351.05 78.7868 351.767 82.2486 353.177 84.7401C354.607 87.2184 357.175 88.4649 360.91 88.4649C363.843 88.4649 366.415 87.6229 368.641 85.929C370.85 84.2467 372.717 82.1137 374.233 79.5383C375.743 76.9696 376.88 74.146 377.642 71.0806C378.388 68.0234 378.769 65.1077 378.769 62.3579C378.769 57.9244 378.054 54.4544 376.631 51.9662C375.208 49.4879 372.628 48.2414 368.898 48.2414Z" fill="white"/>
<path d="M419.975 103.384H400.234L416.891 33.3317H436.761L419.975 103.384ZM429.559 24.7966C426.807 24.7966 424.313 23.9776 422.101 22.3364C419.879 20.705 418.764 18.1938 418.764 14.8093C418.764 12.9478 419.148 11.2013 419.899 9.55344C420.651 7.90891 421.653 6.49299 422.901 5.2892C424.14 4.09527 425.595 3.14142 427.231 2.42277C428.871 1.71562 430.625 1.36206 432.487 1.36206C435.246 1.36206 437.737 2.18105 439.954 3.82228C442.175 5.47175 443.295 7.98293 443.295 11.3493C443.295 13.2175 442.898 14.9706 442.151 16.6151C441.406 18.2596 440.404 19.6756 439.162 20.8794C437.911 22.0749 436.472 23.0254 434.834 23.7375C433.182 24.4562 431.432 24.7966 429.559 24.7966Z" fill="white"/>
<path d="M450.982 36.5199C452.479 36.0824 454.151 35.5561 455.97 34.9839C457.794 34.4116 459.833 33.8788 462.11 33.3986C464.363 32.9036 466.905 32.5023 469.701 32.1915C472.497 31.874 475.682 31.7195 479.221 31.7195C489.625 31.7195 496.796 34.747 500.755 40.7842C504.711 46.8213 505.395 55.0833 502.829 65.5557L493.755 103.38H473.9L482.693 66.3516C483.231 64.0394 483.652 61.8045 483.963 59.6205C484.277 57.4563 484.259 55.5487 483.892 53.8976C483.542 52.2662 482.716 50.9309 481.433 49.8964C480.133 48.8785 478.166 48.3671 475.498 48.3671C472.926 48.3671 470.309 48.6434 467.639 49.1761L454.711 103.378H434.848L450.982 36.5199Z" fill="white"/>
</svg>
