<svg width="283" height="94" viewBox="0 0 283 94" fill="none" xmlns="http://www.w3.org/2000/svg">
<path d="M112.69 60.6935H113.651C114.387 60.6935 114.958 60.8683 115.366 61.215C115.774 61.5664 115.979 62.0293 115.979 62.5986C115.979 63.158 115.777 63.6123 115.375 63.9646C114.973 64.3121 114.398 64.4869 113.651 64.4869H112.691V60.6935H112.69ZM126.019 71.9404C126.019 70.3892 125.629 69.1167 124.847 68.1193C124.067 67.122 122.918 66.3421 121.401 65.7827V65.7112C122.626 65.2797 123.583 64.6346 124.27 63.7699C124.959 62.9078 125.302 61.8221 125.302 60.5165C125.302 57.9951 124.126 56.2656 121.769 55.3277C119.412 54.3889 116.521 53.9204 113.092 53.9204H105.397H102.264V79.8662H113.651C117.21 79.8662 120.159 79.2776 122.504 78.0985C124.847 76.9211 126.019 74.8674 126.019 71.9404ZM115.691 72.8529C115.23 73.2474 114.574 73.4467 113.723 73.4467H112.691V69.158H113.723C114.562 69.158 115.215 69.3617 115.681 69.7627C116.147 70.1649 116.382 70.6821 116.382 71.3112C116.382 71.9404 116.151 72.455 115.691 72.8529Z" fill="#EEDB5F"/>
<path d="M138.913 53.9209H128.242V79.8667H138.913V53.9209Z" fill="#EEDB5F"/>
<path d="M166.584 62.739V53.9209H141.433V62.739H148.674V79.8667H159.343V62.739H166.584Z" fill="#EEDB5F"/>
<path d="M190.132 69.4746C189.269 69.953 188.311 70.3341 187.262 70.6209C186.213 70.9086 185.151 71.049 184.08 71.049C182.958 71.049 181.994 70.8789 181.183 70.5408C180.371 70.2036 179.755 69.7342 179.33 69.1352C178.902 68.5315 178.69 67.8485 178.69 67.0798C178.69 66.3077 178.902 65.6221 179.33 65.0226C179.755 64.4215 180.371 63.9512 181.183 63.6123C181.994 63.2734 182.958 63.105 184.08 63.105C185.128 63.105 186.167 63.242 187.193 63.5081C188.219 63.7755 189.144 64.1442 189.973 64.6084V54.9005C189.167 54.4815 188.112 54.1426 186.807 53.8864C185.502 53.6302 184.159 53.501 182.784 53.501C179.939 53.501 177.385 54.0832 175.124 55.242C172.859 56.4017 171.087 57.999 169.803 60.0363C168.522 62.0711 167.881 64.3621 167.881 66.9028C167.881 69.4345 168.519 71.7208 169.796 73.762C171.073 75.8023 172.84 77.4047 175.096 78.5644C177.353 79.725 179.892 80.3038 182.714 80.3038C184.114 80.3038 185.486 80.1642 186.834 79.8839C188.179 79.604 189.279 79.2422 190.131 78.7996V69.4746H190.132Z" fill="#EEDB5F"/>
<path d="M209.702 69.0882C209.344 69.7079 208.868 70.1958 208.269 70.5502C207.664 70.9085 207.002 71.0842 206.278 71.0842C205.568 71.0842 204.91 70.9085 204.303 70.5502C203.698 70.1962 203.22 69.7109 202.87 69.0977C202.52 68.4862 202.341 67.8127 202.341 67.0797C202.341 66.3421 202.519 65.6677 202.87 65.0553C203.22 64.4421 203.698 63.9576 204.303 63.595C204.91 63.2341 205.568 63.0516 206.278 63.0516C206.994 63.0516 207.652 63.2341 208.259 63.595C208.865 63.9576 209.344 64.4473 209.702 65.0644C210.056 65.6836 210.233 66.3554 210.233 67.0797C210.233 67.8023 210.055 68.4716 209.702 69.0882ZM218.84 73.6982C220.123 71.6527 220.763 69.3858 220.763 66.9023C220.763 64.4193 220.127 62.1511 218.849 60.1047C217.573 58.0575 215.824 56.4443 213.608 55.267C211.392 54.0913 208.949 53.5005 206.278 53.5005C203.611 53.5005 201.169 54.0909 198.958 55.267C196.747 56.4443 195.007 58.0575 193.729 60.1047C192.451 62.1511 191.813 64.4197 191.813 66.9023C191.813 69.3862 192.451 71.6527 193.729 73.6982C195.007 75.7463 196.747 77.3586 198.958 78.5377C201.169 79.715 203.611 80.3033 206.278 80.3033C208.949 80.3033 211.39 79.7155 213.601 78.5377C215.812 77.3586 217.557 75.7463 218.84 73.6982Z" fill="#EEDB5F"/>
<path d="M233.658 53.9209H222.987V79.8667H233.658V53.9209Z" fill="#EEDB5F"/>
<path d="M252.887 64.4866L252.816 64.5245L246.501 53.9209H236.826V79.8667H246.71V68.9691L246.781 68.9312L253.234 79.8667H262.769V53.9209H252.887V64.4866Z" fill="#EEDB5F"/>
<path d="M113.077 37.6368H113.185L114.274 41.9557H111.907L113.077 37.6368ZM110.616 46.8408H115.484L116.077 49.2597H124.779L117.395 29.3101H109.216L101.832 49.2597H109.983L110.616 46.8408Z" fill="#EEDB5F"/>
<path d="M134.059 36.0913H134.179C135.363 36.0913 136.3 36.3858 136.991 36.9797C137.682 37.5701 138.026 38.3853 138.026 39.4283C138.026 40.0919 137.864 40.675 137.543 41.1771C137.22 41.6775 136.765 42.0685 136.176 42.3463C135.589 42.624 134.915 42.7627 134.152 42.7627H134.059L134.059 36.0913ZM125.853 49.2593H134.031C136.238 49.2593 138.227 48.8532 140.003 48.0423C141.778 47.2306 143.175 46.0717 144.191 44.5662C145.211 43.059 145.719 41.3003 145.719 39.2918C145.719 37.2923 145.211 35.5371 144.191 34.0251C143.176 32.5153 141.776 31.3513 139.998 30.5339C138.218 29.7179 136.211 29.3101 133.978 29.3101H125.853V42.0642V49.2593H125.853Z" fill="#EEDB5F"/>
<path d="M155.347 37.874C155.618 37.4029 155.984 37.027 156.451 36.7505C156.918 36.4727 157.424 36.3324 157.971 36.3324C158.517 36.3324 159.024 36.4727 159.49 36.7505C159.955 37.0274 160.326 37.4042 160.6 37.8792C160.872 38.3546 161.008 38.8718 161.008 39.4286C161.008 39.9837 160.872 40.4983 160.6 40.9746C160.326 41.4513 159.958 41.8243 159.497 42.0981C159.034 42.3725 158.527 42.5085 157.971 42.5085C157.423 42.5085 156.917 42.3725 156.45 42.0981C155.983 41.8238 155.617 41.453 155.346 40.9819C155.078 40.5108 154.944 39.9919 154.944 39.4286C154.945 38.8615 155.079 38.3447 155.347 37.874ZM152.343 48.2377C154.04 49.1438 155.919 49.5968 157.972 49.5968C160.024 49.5968 161.899 49.1433 163.599 48.2377C165.299 47.3317 166.64 46.0932 167.628 44.5175C168.613 42.9456 169.106 41.2037 169.106 39.2917C169.106 37.3814 168.616 35.639 167.634 34.0668C166.653 32.4915 165.309 31.2517 163.607 30.3465C161.901 29.4383 160.024 28.9883 157.972 28.9883C156.552 28.9883 155.217 29.2036 153.966 29.636C153.828 29.6855 153.692 29.7359 153.556 29.7888C153.551 29.7906 153.546 29.7931 153.541 29.7949C153.421 29.8418 153.299 29.8909 153.179 29.9421C153.154 29.9546 153.129 29.965 153.104 29.9757C153.003 30.0209 152.901 30.0683 152.801 30.1144C152.771 30.1303 152.741 30.1428 152.711 30.1583C152.589 30.2182 152.464 30.2802 152.343 30.3469C150.644 31.2521 149.302 32.4915 148.321 34.0672C148.265 34.1563 148.21 34.2464 148.158 34.3372C148.141 34.3665 148.125 34.3971 148.107 34.4272C148.073 34.4897 148.037 34.5508 148.004 34.6133C147.985 34.6486 147.966 34.683 147.948 34.7175C147.917 34.7773 147.886 34.8376 147.856 34.8992C147.84 34.9328 147.822 34.9664 147.805 35.0008C147.769 35.0749 147.736 35.1498 147.702 35.2239C147.684 35.2644 147.666 35.3023 147.649 35.3423C147.62 35.4112 147.589 35.4827 147.56 35.5516C147.542 35.5977 147.525 35.6408 147.509 35.6855C147.489 35.7368 147.468 35.7854 147.451 35.8354C147.433 35.8841 147.414 35.934 147.398 35.9853C147.381 36.0292 147.367 36.0735 147.352 36.1201C147.333 36.173 147.316 36.2251 147.299 36.2781C147.288 36.3168 147.276 36.3539 147.265 36.3926C147.23 36.5111 147.196 36.6291 147.165 36.7475C147.158 36.7738 147.152 36.7996 147.145 36.825C147.129 36.8905 147.114 36.9572 147.1 37.0218C147.092 37.0528 147.085 37.0847 147.077 37.117C147.064 37.1833 147.048 37.25 147.036 37.3189C147.03 37.3465 147.025 37.3753 147.02 37.4029C147.007 37.4735 146.992 37.545 146.983 37.6191C146.982 37.6234 146.981 37.6268 146.981 37.629C146.952 37.8073 146.927 37.9873 146.908 38.1673C146.869 38.5363 146.848 38.911 146.848 39.2925C146.848 41.2041 147.339 42.9461 148.321 44.5183C149.302 46.0932 150.644 47.3321 152.343 48.2377Z" fill="#EEDB5F"/>
<path d="M180.881 38.3499C180.499 38.6819 179.954 38.8486 179.245 38.8486H179.018V35.2429H179.245C179.946 35.2429 180.488 35.4113 180.872 35.7459C181.258 36.083 181.452 36.5206 181.452 37.0589C181.452 37.5894 181.261 38.0188 180.881 38.3499ZM187.431 41.0272C188.27 39.8993 188.69 38.4813 188.69 36.7772C188.69 35.0379 188.236 33.6099 187.332 32.4984C186.424 31.3848 185.203 30.5765 183.666 30.0709C182.125 29.5636 180.376 29.3096 178.413 29.3096H170.814V49.2592H179.019V44.3228H179.273C181.039 44.3228 182.631 44.058 184.048 43.5231C185.466 42.9896 186.592 42.1576 187.431 41.0272Z" fill="#EEDB5F"/>
<path d="M203.726 49.2595V36.0915H209.295V29.3081L189.952 29.3098V36.0915H195.519V49.2595H203.726Z" fill="#EEDB5F"/>
<path d="M219.425 29.3081H211.217V49.2595H219.425V29.3081Z" fill="#EEDB5F"/>
<path d="M221.859 29.3081V49.2595H229.46V40.8797L229.513 40.8522L234.474 49.2595H241.807V29.3081H234.205V37.4346L234.151 37.4626L229.298 29.3081H221.859Z" fill="#EEDB5F"/>
<path d="M245.047 34.0789C244.021 35.671 243.512 37.4625 243.512 39.455C243.512 41.3726 243.996 43.1021 244.958 44.6412C245.923 46.1768 247.296 47.3891 249.081 48.2714C250.865 49.1547 252.939 49.5969 255.295 49.5969C256.909 49.5969 258.384 49.4109 259.716 49.0375C261.046 48.6667 262.12 48.215 262.936 47.6866V37.9056H254.448V42.2382H256.452V43.3157C256.237 43.3872 255.963 43.4233 255.632 43.4233C254.943 43.4233 254.299 43.2687 253.709 42.9651C253.116 42.6589 252.641 42.2231 252.283 41.6538C251.924 41.0845 251.743 40.4227 251.743 39.669C251.743 38.943 251.92 38.2932 252.271 37.7187C252.618 37.1451 253.144 36.6933 253.841 36.3678C254.544 36.0405 255.403 35.8764 256.427 35.8764C257.349 35.8764 258.416 36.0177 259.627 36.3062C260.837 36.593 261.854 36.9069 262.682 37.2467V30.6687C261.89 30.1933 260.847 29.7967 259.549 29.4711C258.246 29.149 256.896 28.9893 255.499 28.9893C255.351 28.9893 255.205 28.991 255.059 28.9944C255.035 28.9944 255.01 28.9953 254.988 28.9962C254.864 28.9996 254.742 29.0048 254.621 29.0112C254.608 29.0121 254.593 29.0129 254.577 29.0138C254.446 29.0216 254.317 29.028 254.186 29.0401C254.184 29.0401 254.181 29.0401 254.179 29.0409C253.467 29.0973 252.781 29.1998 252.118 29.3514C251.126 29.5758 250.189 29.9057 249.309 30.3406C247.491 31.2402 246.067 32.4886 245.047 34.0789Z" fill="#EEDB5F"/>
<path d="M59.6917 19.032C59.538 19.1935 59.3718 19.3649 59.2521 19.526C59.1393 19.6784 59.0712 19.8188 59.1074 19.9191C59.1526 20.0432 59.3477 20.1108 59.5901 20.1525C60.9416 20.2839 62.2199 20.4157 62.5677 20.4437C62.442 21.6533 61.847 24.7552 61.3583 27.4372C61.3368 27.6069 61.3433 27.7442 61.4061 27.7899C61.4229 27.8019 61.4427 27.805 61.4642 27.8032C61.4707 27.8028 61.4776 27.8002 61.4849 27.7981C61.5009 27.7942 61.5172 27.7882 61.5349 27.7783C61.5435 27.7735 61.5521 27.7683 61.5611 27.7623C61.5796 27.7503 61.5986 27.7352 61.6184 27.7184C61.627 27.7111 61.6352 27.7046 61.6446 27.6964C61.6726 27.6702 61.7023 27.6417 61.7325 27.6086C61.9021 27.4281 62.1049 27.1573 62.2853 26.9316L64.6576 24.027L68.2682 19.6022C68.2919 19.5716 68.3216 19.5393 68.344 19.5066C68.4547 19.3718 68.5584 19.2439 68.6588 19.122C68.8801 18.8395 69.0497 18.5691 69.001 18.3904C68.9739 18.2801 68.8133 18.2216 68.6282 18.1832C67.7391 18.0558 66.7484 17.9128 65.7426 17.7931C65.8369 16.915 66.078 15.3342 66.3217 13.7503L66.4397 12.8851C66.4591 12.765 66.4871 12.625 66.5103 12.4821C66.5491 12.2857 66.5831 12.0837 66.5981 11.9196C66.6076 11.7689 66.6041 11.6518 66.5615 11.6027C66.5533 11.5919 66.5473 11.5833 66.5344 11.5786C66.5219 11.5743 66.5056 11.5781 66.4892 11.5812C66.4802 11.5829 66.472 11.5842 66.4621 11.5881C66.4479 11.5936 66.4324 11.6023 66.4164 11.6117C66.4061 11.6182 66.3962 11.6225 66.385 11.6303C66.3665 11.6427 66.3467 11.6587 66.3265 11.675C66.3161 11.6837 66.3062 11.6905 66.2955 11.6996C66.264 11.7267 66.2313 11.7569 66.1973 11.79C65.9889 11.9941 65.7345 12.2973 65.5549 12.4963L63.9675 14.2688L63.2756 15.043L59.9061 18.8047C59.8423 18.8744 59.77 18.9519 59.6917 19.032Z" fill="#EEDB5F"/>
<path d="M42.4614 14.4844C42.3103 14.714 42.1971 14.9207 42.21 15.0141C42.2117 15.0253 42.216 15.0352 42.2212 15.0447L42.2216 15.0456C42.2272 15.0572 42.2337 15.0667 42.2453 15.0757C42.2625 15.0916 42.2866 15.1046 42.3159 15.1153C42.3757 15.1334 42.808 15.1179 42.9359 15.1076C43.2808 15.0787 43.6248 15.0542 43.9731 15.0344C44.0717 15.0288 44.1698 15.0253 44.2714 15.0202C44.7209 14.9978 45.1683 14.9801 45.6109 14.9698C45.9648 14.9607 46.3144 14.9551 46.6589 14.9517C46.754 14.9508 46.8466 14.9504 46.94 14.95C47.2586 14.9482 47.5746 14.9474 47.8756 14.9504C47.7727 17.5833 47.6474 20.3747 47.5406 23.0326C47.5256 23.443 47.5075 23.8499 47.4933 24.2521C47.4601 25.1091 47.4601 25.1091 47.4601 25.1091C47.4584 25.1698 47.4554 25.234 47.4532 25.2977C47.4438 25.6836 47.4437 26.109 47.5264 26.2244C47.5286 26.23 47.5324 26.2348 47.5363 26.2391C47.551 26.2533 47.5677 26.2598 47.5858 26.2593C47.5871 26.2593 47.5888 26.2585 47.5901 26.2585C47.6065 26.2576 47.6246 26.2516 47.6435 26.2408C47.65 26.2374 47.6564 26.2318 47.6629 26.227C47.6775 26.2171 47.6926 26.2059 47.7081 26.1917C47.7163 26.1844 47.7245 26.1754 47.7331 26.1672C47.7482 26.1521 47.7632 26.1362 47.7787 26.1181C47.7878 26.1073 47.7972 26.0961 47.8067 26.0845C47.8218 26.066 47.8369 26.0466 47.8519 26.0264C47.8618 26.013 47.8722 25.9992 47.8825 25.9854C47.8976 25.9648 47.9126 25.9428 47.9277 25.9213C47.938 25.9062 47.9484 25.8916 47.9587 25.8765C47.9742 25.8537 47.9893 25.8304 48.0043 25.8067C48.0142 25.7917 48.0246 25.7766 48.034 25.7615C48.0577 25.7253 48.081 25.6892 48.1034 25.6539C48.1034 25.6539 48.1034 25.6539 48.4844 25.0703C50.8826 21.4005 54.0049 16.9261 56.7772 13.0642C57.6004 11.9153 57.7421 11.7215 57.7421 11.7215C57.7589 11.7012 57.7748 11.6788 57.7912 11.6582C58.1485 11.1754 58.6006 10.6557 58.7827 10.2922C58.8348 10.1863 58.8693 10.0911 58.8637 10.0157C58.8611 9.97999 58.8426 9.95243 58.8133 9.93003C58.8034 9.92185 58.7857 9.91841 58.7728 9.91195C58.7487 9.89989 58.7268 9.88697 58.6953 9.87922C58.6742 9.87362 58.6484 9.8719 58.6247 9.86802C58.5954 9.86329 58.5675 9.85769 58.5352 9.8551C58.5059 9.85295 58.4749 9.85295 58.4443 9.85209C58.4129 9.85123 58.3814 9.84907 58.3496 9.84907C58.2376 9.85037 58.1309 9.85596 58.059 9.85855C58.059 9.85855 58.059 9.85855 57.5148 9.88223C55.9329 9.95027 54.3119 10.0368 52.7697 10.1423C52.8859 7.42675 53.0332 4.31195 53.1554 1.62565C53.1869 0.879784 53.1869 0.879784 53.1869 0.879784C53.1877 0.859113 53.1886 0.834998 53.1894 0.813035C53.2028 0.527954 53.214 0.144257 53.1257 0.0322917C53.1107 0.0154969 53.0947 0.00257805 53.0753 0.000424866C53.0637 -0.00129768 53.0495 0.00257808 53.0362 0.00559254C53.0267 0.00731508 53.0172 0.00817627 53.0069 0.0124826C52.9953 0.0172196 52.9819 0.0245405 52.9694 0.0318613C52.9587 0.0378902 52.9479 0.0430577 52.9363 0.0508091C52.9229 0.0598525 52.9087 0.0719102 52.8941 0.0831068C52.882 0.0930114 52.8695 0.101624 52.8566 0.113252C52.842 0.126171 52.8265 0.142104 52.811 0.157176C52.7977 0.170095 52.7843 0.182153 52.771 0.196364C52.7537 0.21402 52.7361 0.233829 52.7184 0.252777C52.7055 0.267419 52.6922 0.280338 52.6788 0.295841C52.6594 0.318234 52.6392 0.34235 52.619 0.366465C52.6069 0.381107 52.5944 0.394888 52.5824 0.40996C52.5557 0.441827 52.5294 0.475416 52.5027 0.509006C52.4958 0.517188 52.4898 0.524939 52.4833 0.533122C52.4493 0.576185 52.4153 0.62011 52.3813 0.664896C52.2905 0.783752 52.1979 0.907344 52.11 1.02275C52.11 1.02275 52.1101 1.02276 51.4716 1.88963C51.4091 1.97661 51.3402 2.06963 51.2726 2.1592C49.482 4.60005 46.1103 9.33748 46.1103 9.33748C45.948 9.56356 45.7947 9.77845 45.6462 9.98257C45.5282 10.1492 45.412 10.3155 45.2932 10.4821C45.189 10.6294 43.7802 12.615 43.4745 13.0483C42.9453 13.7984 42.9454 13.7984 42.9454 13.7984C42.811 13.9879 42.6164 14.2489 42.4614 14.4844Z" fill="#EEDB5F"/>
<path d="M33.186 27.1068C33.1946 27.2416 33.2006 27.3415 33.2054 27.4164C33.2166 27.6433 33.2166 27.6433 33.2166 27.6433C33.2192 27.6812 33.2222 27.7204 33.2247 27.7609C33.2407 28.0111 33.2669 28.2884 33.3311 28.3427L33.3324 28.3436C33.3414 28.3509 33.3513 28.353 33.3617 28.3526C33.3797 28.3517 33.3996 28.3388 33.4206 28.3186C33.4241 28.3156 33.4275 28.3126 33.4306 28.3091C33.4517 28.2867 33.4736 28.2579 33.4956 28.2234C33.4994 28.2178 33.5033 28.2118 33.5063 28.2062C33.5296 28.17 33.5524 28.1304 33.5752 28.0886C33.5778 28.0839 33.5808 28.0787 33.5834 28.074C33.6071 28.0305 33.6299 27.9866 33.6518 27.9444C33.6518 27.9444 33.6518 27.9444 33.8538 27.5581C35.1312 25.128 36.8142 22.1536 38.3139 19.5814C38.7582 18.8157 38.8361 18.6861 38.8361 18.6861C38.843 18.6723 38.8529 18.6581 38.8619 18.6439C39.0566 18.3218 39.3089 17.9708 39.3976 17.7335C39.4243 17.6646 39.441 17.6026 39.432 17.5578C39.4303 17.5471 39.426 17.538 39.4225 17.5311C39.3803 17.4683 39.2357 17.47 39.1039 17.4829C39.0923 17.4842 39.0828 17.4855 39.0712 17.4868C39.0131 17.4937 38.9601 17.5019 38.9231 17.5062C38.9231 17.5062 38.9231 17.5062 38.5851 17.5535C37.6017 17.6888 36.5964 17.839 35.6423 17.9962C35.5536 16.2965 35.4593 14.3449 35.3758 12.6624C35.353 12.1964 35.3529 12.1964 35.3529 12.1964C35.3521 12.1831 35.3508 12.1689 35.35 12.1538C35.3426 11.9901 35.3276 11.774 35.2776 11.6896C35.2634 11.6685 35.2492 11.6547 35.2315 11.6538C35.2178 11.6534 35.2001 11.6663 35.1838 11.6749C35.1726 11.6809 35.1627 11.681 35.1502 11.6909C35.133 11.7046 35.1136 11.7279 35.095 11.7481C35.0813 11.7632 35.0684 11.7735 35.0542 11.7912C35.0361 11.8136 35.0167 11.842 34.9982 11.8678C34.9814 11.8911 34.965 11.9113 34.9478 11.9372C34.9116 11.991 34.8746 12.0491 34.8376 12.109C34.7889 12.1891 34.7373 12.2709 34.6904 12.3489C34.6904 12.3489 34.6904 12.3489 34.3442 12.9268C34.3089 12.9849 34.2714 13.0465 34.2357 13.1068C33.2639 14.7342 31.4397 17.889 31.4397 17.889C31.3531 18.0389 31.2692 18.1831 31.19 18.3179C31.1271 18.429 31.0638 18.5397 30.9992 18.6499C30.942 18.749 30.1833 20.0702 30.018 20.3587C29.733 20.8582 29.733 20.8582 29.733 20.8582C29.6589 20.9844 29.553 21.1584 29.4699 21.3151C29.3899 21.4676 29.3304 21.6019 29.3463 21.6605C29.3489 21.6696 29.3532 21.6777 29.358 21.6846C29.3722 21.6997 29.3916 21.7109 29.4178 21.7169C29.4256 21.7186 29.4471 21.7174 29.4695 21.7161C29.4794 21.7156 29.4876 21.7152 29.4992 21.7143C29.5212 21.7126 29.5453 21.71 29.5711 21.707C29.5832 21.7057 29.5939 21.7049 29.6064 21.7031C29.6335 21.6997 29.6598 21.6963 29.686 21.6928C29.6972 21.6915 29.7089 21.6898 29.7196 21.6885C29.7536 21.6838 29.7838 21.679 29.8027 21.6756C30.0163 21.6377 30.2307 21.6011 30.4451 21.5688C30.5075 21.5585 30.5695 21.5516 30.6302 21.5421C30.9084 21.5012 31.1869 21.4641 31.4621 21.431C31.9516 21.3711 32.4299 21.322 32.8747 21.2841C32.9802 23.1867 33.0805 25.221 33.186 27.1068Z" fill="#EEDB5F"/>
<path d="M27.2324 78.8711C27.6725 78.7682 28.1052 78.67 28.5331 78.5739C28.6576 78.5459 28.7807 78.5188 28.9047 78.4917C29.2246 78.4206 29.5415 78.3517 29.8545 78.2845C29.9699 78.2596 30.0857 78.2346 30.2002 78.2105C30.6131 78.1231 31.0209 78.0378 31.4213 77.9568C31.4402 77.953 31.4579 77.9495 31.4768 77.9456C31.8596 77.8681 32.2355 77.7945 32.6062 77.723L32.6856 77.7079C32.7674 77.6924 32.8485 77.6771 32.9299 77.6614C33.2249 77.6054 33.5155 77.5516 33.8031 77.4991C33.9017 77.481 34.0007 77.4629 34.0984 77.4452C34.4722 77.3785 34.8411 77.3135 35.2019 77.2527C35.2248 77.2489 35.2467 77.2454 35.27 77.2416C35.6058 77.1851 35.9352 77.1317 36.2602 77.0805C36.355 77.0654 36.4484 77.0512 36.5414 77.0366C36.8109 76.9952 37.0761 76.9552 37.3375 76.9173C37.4171 76.9057 37.4976 76.8936 37.5769 76.8824C37.9088 76.835 38.2356 76.7902 38.5546 76.7489C38.5874 76.7446 38.6188 76.7407 38.6519 76.7368C38.9352 76.7007 39.2129 76.6667 39.4855 76.6348C39.569 76.6253 39.6521 76.6158 39.7343 76.6064C39.9711 76.5797 40.2032 76.5547 40.4314 76.5314C40.4981 76.5245 40.5662 76.5177 40.632 76.5108C40.9197 76.4828 41.2012 76.4565 41.4755 76.4337C41.5129 76.4307 41.5487 76.4281 41.5861 76.4251C41.8208 76.4061 42.0498 76.3893 42.2746 76.3738C42.3474 76.3686 42.4193 76.3644 42.4912 76.3596C42.6939 76.3471 42.8924 76.3359 43.0862 76.3264C43.14 76.3239 43.1951 76.3208 43.2481 76.3183C43.4905 76.3075 43.7269 76.2993 43.9559 76.2933C43.9938 76.2924 44.0295 76.2924 44.0665 76.2916C44.2556 76.2877 44.4398 76.2851 44.6189 76.2847H44.8019C44.9621 76.2851 45.118 76.2873 45.2699 76.2907L45.2804 76.2909C45.3233 76.2917 45.3676 76.2925 45.4094 76.2937C45.6019 76.2989 45.7888 76.3066 45.9674 76.3165C45.998 76.3183 46.0268 76.3204 46.0574 76.3226C46.2034 76.3316 46.345 76.3419 46.4815 76.3536C46.5327 76.3583 46.5831 76.3631 46.6335 76.3678C46.751 76.3794 46.8647 76.3923 46.9754 76.4061C47.0188 76.4117 47.0636 76.4165 47.1058 76.4225C47.2509 76.4423 47.3908 76.4638 47.5226 76.4879C47.5407 76.4914 47.5561 76.4953 47.5738 76.4983C47.6875 76.5198 47.7955 76.5426 47.8984 76.5672C47.9363 76.5762 47.9725 76.5857 48.0091 76.5952C48.0913 76.6163 48.1701 76.6387 48.2455 76.6619C48.2773 76.6718 48.3105 76.6813 48.3415 76.6916C48.4414 76.7252 48.5365 76.7597 48.6226 76.7971C49.1699 77.0336 49.107 77.6214 48.6872 78.3418C48.4306 78.7828 48.0573 79.2901 47.5755 79.7625C46.737 80.5848 46.2249 81.0293 44.8436 82.0278V82.061C45.1216 81.9668 45.4012 81.8753 45.6811 81.7856C45.778 81.7546 45.8749 81.7249 45.9722 81.6943C46.1887 81.6263 46.4062 81.5591 46.624 81.4932C46.7338 81.4601 46.8432 81.4278 46.9534 81.395C47.1687 81.3317 47.3852 81.2693 47.6014 81.2081C47.703 81.1793 47.805 81.1504 47.9066 81.122C48.174 81.0479 48.4418 80.976 48.7105 80.9054C48.7578 80.8929 48.8052 80.88 48.8525 80.8675C49.1699 80.7848 49.4885 80.7047 49.8067 80.6268C49.8915 80.6061 49.9767 80.5863 50.0611 80.5656C50.2958 80.5092 50.5304 80.4537 50.7651 80.3998C50.8727 80.3749 50.9799 80.3507 51.0875 80.3266C51.3075 80.2771 51.5271 80.2284 51.7463 80.1815C51.8488 80.1595 51.9516 80.1372 52.0541 80.1156C52.3038 80.0627 52.5531 80.0114 52.8024 79.9614C52.8696 79.9481 52.9372 79.9339 53.0048 79.9205C53.3229 79.8577 53.6407 79.7965 53.9567 79.7379L53.9992 79.7303C54.0445 79.7222 54.0893 79.7142 54.135 79.7057C54.3903 79.6591 54.6448 79.6135 54.8979 79.5696C54.9965 79.5523 55.0942 79.536 55.1924 79.5192C55.4111 79.4822 55.6294 79.446 55.8464 79.4107C55.9245 79.3979 56.003 79.3853 56.081 79.3728L56.1461 79.3624C56.3777 79.3258 56.6076 79.2905 56.8371 79.2556C56.9129 79.2444 56.9891 79.2324 57.0644 79.2212C57.3723 79.176 57.6788 79.132 57.9819 79.0903L58.022 79.0851C58.3079 79.0459 58.5907 79.0089 58.8723 78.9736C58.9554 78.9628 59.0381 78.9529 59.1208 78.9426C59.3343 78.9159 59.5466 78.89 59.7575 78.8655C59.848 78.8551 59.9379 78.8448 60.0275 78.8345C60.2402 78.8104 60.4511 78.7871 60.6608 78.7647C60.7357 78.7565 60.8106 78.7483 60.8847 78.7406C61.45 78.6816 62.0016 78.6295 62.5363 78.5838C62.6009 78.5782 62.6642 78.5735 62.7283 78.5679C62.9307 78.5511 63.1309 78.5352 63.3281 78.5201C63.4043 78.5145 63.4792 78.5089 63.5537 78.5033C63.7436 78.4891 63.9309 78.4762 64.116 78.4641C64.1827 78.4594 64.2503 78.4551 64.3162 78.4508C64.5358 78.4366 64.7519 78.4236 64.9637 78.412C64.9883 78.4107 65.0133 78.409 65.0378 78.4077C65.2785 78.3944 65.5131 78.3827 65.7426 78.3724C65.7687 78.3714 65.7938 78.3703 65.819 78.3693L65.8696 78.3672C66.0513 78.359 66.2291 78.3522 66.4031 78.3461L66.4247 78.3454C66.4787 78.3435 66.5316 78.3416 66.5852 78.3401C66.7415 78.3349 66.8952 78.3306 67.0446 78.3268C67.101 78.3255 67.1574 78.3237 67.2125 78.3224C67.3748 78.319 67.5324 78.316 67.6865 78.3138C67.7223 78.3134 67.7597 78.3125 67.795 78.3121C67.984 78.31 68.1679 78.3091 68.3436 78.3091H68.3901C68.5433 78.3091 68.6906 78.3104 68.8331 78.3125C68.874 78.313 68.9132 78.3138 68.9524 78.3147C69.0742 78.3168 69.1918 78.3194 69.3046 78.3229L69.4032 78.3255C69.5435 78.3302 69.6787 78.3354 69.804 78.3418C69.81 78.3418 69.8148 78.3423 69.8208 78.3427C69.9375 78.3487 70.0464 78.3556 70.1497 78.3634C70.1803 78.3655 70.2096 78.3681 70.2389 78.3702C70.3164 78.3763 70.3895 78.3832 70.4584 78.3901C70.4856 78.3926 70.5131 78.3952 70.5389 78.3982C70.6263 78.4081 70.7086 78.4185 70.7801 78.4297C71.9839 78.6187 72.7296 78.9322 72.7292 79.3637C72.7287 80.1905 71.4259 81.336 69.5461 82.5625C75.2057 82.8062 80.5264 83.1447 85.3998 83.5624C83.6961 81.6328 82.1022 79.6118 80.597 77.524C80.3658 75.5513 80.2935 73.5053 80.4648 71.9809C80.8084 68.9268 81.9193 66.2453 82.6202 65.145C83.0391 64.4874 83.3396 64.0292 83.8068 63.5422C84.1077 63.4832 84.3975 63.4379 84.6812 63.4074L84.6976 63.4061C84.9757 63.3768 85.2483 63.3613 85.5204 63.3609C85.6104 63.3609 85.7003 63.3643 85.7903 63.3677C85.8355 63.3695 85.8808 63.369 85.926 63.3716C86.0214 63.3767 86.1172 63.3859 86.2138 63.3952L86.2196 63.3957C86.2601 63.3996 86.3001 63.4013 86.3406 63.4056C86.4456 63.4173 86.552 63.4332 86.6587 63.4496C86.6936 63.4547 86.7272 63.4582 86.7621 63.4638C86.9042 63.4875 87.0484 63.515 87.1952 63.5465C90.3628 64.2333 91.7901 67.1272 92.0122 69.2054C94.729 65.1256 92.2309 61.5694 88.511 61.4251C88.4072 61.4213 88.2979 61.4234 88.1885 61.4256C88.1265 61.4269 88.0649 61.4286 88.0012 61.432C87.9216 61.4363 87.8406 61.4424 87.7588 61.4497C87.6942 61.4553 87.6296 61.4609 87.5642 61.4682C87.4811 61.4777 87.3963 61.4893 87.3115 61.5014L87.2815 61.5056C87.2248 61.5136 87.1679 61.5216 87.1104 61.5315C87.0276 61.5452 86.944 61.5614 86.86 61.5776L86.8512 61.5793C86.7832 61.5922 86.716 61.6047 86.6475 61.6194C86.5595 61.6383 86.4704 61.6599 86.3819 61.6814C86.3152 61.6977 86.2484 61.7124 86.1817 61.73C86.1057 61.7498 86.0303 61.7715 85.9548 61.7931L85.9105 61.8058C85.8463 61.8243 85.7822 61.8416 85.7184 61.8609C85.6198 61.8911 85.5238 61.9238 85.4265 61.9561C85.3731 61.9742 85.3185 61.9906 85.2655 62.0095C85.1165 62.0621 84.9701 62.1167 84.8272 62.174C85.365 61.5784 85.9522 61.0479 86.5429 60.7284C86.6476 60.6534 86.7578 60.5867 86.871 60.5238C86.9068 60.504 86.9442 60.4864 86.9808 60.4678C87.0605 60.4274 87.1401 60.3886 87.2228 60.3533C87.2663 60.3348 87.3097 60.3171 87.3537 60.2999C87.4346 60.2684 87.5155 60.2392 87.5978 60.2125C87.6408 60.1983 87.6835 60.1836 87.7274 60.1707C87.8208 60.1427 87.9155 60.1182 88.0098 60.0953C88.0417 60.0876 88.0727 60.0785 88.105 60.0717C88.2315 60.0437 88.3581 60.0191 88.4851 59.9993C88.5148 59.9946 88.5446 59.9911 88.5743 59.9872C88.672 59.973 88.7684 59.9601 88.8649 59.9502C88.9101 59.9455 88.9549 59.942 88.9996 59.9382C89.0806 59.9313 89.1607 59.9252 89.2403 59.9205C89.2855 59.9183 89.3312 59.9158 89.376 59.914C89.456 59.911 89.5336 59.9093 89.6111 59.9084C89.6541 59.908 89.6976 59.9072 89.7398 59.9072C89.7669 59.9072 89.7936 59.908 89.8207 59.9084C89.887 59.9093 89.952 59.911 90.0153 59.9136C90.042 59.9145 90.0678 59.9158 90.0941 59.9166C90.1626 59.9201 90.2293 59.9244 90.2939 59.9287L90.2979 59.9289C90.3118 59.9297 90.3262 59.9305 90.3395 59.9317C90.4174 59.9377 90.4919 59.945 90.5625 59.9528C90.5806 59.955 90.5974 59.9571 90.6151 59.9593C90.6659 59.9653 90.715 59.9717 90.761 59.9782C90.783 59.9812 90.8032 59.9847 90.8239 59.9877C90.8644 59.9941 90.9023 60.0006 90.938 60.0071C90.9548 60.0101 90.972 60.0131 90.9875 60.0161C91.0357 60.0256 91.0805 60.035 91.118 60.045C92.0062 60.2719 93.4765 60.7331 94.8018 62.1628C94.8086 62.118 94.8142 62.0702 94.8194 62.019C94.8207 62.0043 94.8216 61.988 94.8229 61.9729C94.8263 61.935 94.8293 61.8971 94.8319 61.8562C94.8332 61.8347 94.8336 61.811 94.8345 61.7886C94.8362 61.7516 94.8379 61.7145 94.8384 61.6749C94.8392 61.6504 94.8388 61.6237 94.8388 61.5983C94.8388 61.5586 94.8396 61.5199 94.8388 61.4785C94.8384 61.448 94.8366 61.4157 94.8358 61.3838C94.8345 61.3455 94.8336 61.3076 94.8319 61.2675C94.8302 61.2314 94.8272 61.1935 94.8246 61.1564C94.8224 61.119 94.8203 61.0824 94.8173 61.044C94.8142 61.0048 94.8095 60.9644 94.8061 60.9243C94.8026 60.8856 94.7992 60.8472 94.7949 60.8076C94.7901 60.7663 94.7845 60.7232 94.7794 60.681C94.7742 60.6418 94.7699 60.6031 94.7639 60.563C94.7574 60.5174 94.7497 60.4709 94.7419 60.4243C94.7355 60.386 94.7303 60.3486 94.7234 60.3098C94.7148 60.2624 94.7053 60.2142 94.6959 60.1664C94.6881 60.1272 94.6812 60.0885 94.6726 60.0493C94.6641 60.0075 94.654 59.9652 94.644 59.923L94.639 59.902C94.63 59.8628 94.6214 59.8236 94.6119 59.7844C94.599 59.7327 94.5848 59.6811 94.5705 59.6294C94.5602 59.5919 94.5503 59.5545 94.5396 59.5166C94.5256 59.4675 94.5101 59.4184 94.4946 59.369L94.4909 59.3572C94.4793 59.3198 94.4681 59.2827 94.4556 59.2453C94.4379 59.1919 94.4186 59.1389 94.3996 59.0855C94.3863 59.0485 94.3729 59.011 94.3587 58.974C94.3385 58.921 94.3165 58.868 94.2954 58.8151C94.2803 58.778 94.2653 58.741 94.2494 58.704C94.2265 58.651 94.2024 58.5989 94.1779 58.5468C94.1611 58.5097 94.1443 58.4731 94.1262 58.4365C94.1032 58.3896 94.0787 58.3434 94.054 58.2969L94.0466 58.2828C94.0272 58.2462 94.0082 58.2096 93.988 58.173C93.9605 58.123 93.9308 58.0735 93.901 58.024L93.8912 58.0074C93.8729 57.9767 93.8546 57.9458 93.8356 57.9155C93.805 57.8668 93.7727 57.8194 93.74 57.7721C93.7159 57.7363 93.6927 57.701 93.6673 57.6661C93.6337 57.6196 93.5988 57.5735 93.5635 57.5279C93.5368 57.4934 93.5105 57.459 93.4825 57.425C93.4464 57.3806 93.4085 57.3371 93.3702 57.2936C93.3411 57.2607 93.3114 57.2271 93.2815 57.195C93.2423 57.1532 93.2014 57.1123 93.1605 57.0718C93.1286 57.04 93.0963 57.0081 93.0628 56.9771C93.0201 56.9379 92.9771 56.9 92.9327 56.8626C92.8974 56.8324 92.8621 56.8023 92.826 56.773C92.7812 56.7372 92.7342 56.7024 92.6873 56.6679C92.649 56.6395 92.6103 56.6115 92.5706 56.5844C92.5229 56.5516 92.4733 56.5206 92.4234 56.4896C92.3812 56.4634 92.3394 56.4375 92.2955 56.413C92.2447 56.3841 92.1926 56.3561 92.1401 56.329C92.0945 56.3053 92.048 56.2821 92.001 56.2597C91.9472 56.2343 91.8921 56.2106 91.8365 56.1877C91.787 56.1671 91.7367 56.1464 91.6854 56.1275C91.6286 56.1064 91.5705 56.0861 91.5123 56.0672C91.4585 56.0495 91.4043 56.0327 91.3492 56.0168C91.2893 55.9996 91.2286 55.9841 91.1662 55.969C91.1085 55.9548 91.0499 55.9419 90.9905 55.9298C90.9277 55.9169 90.864 55.9057 90.7998 55.8949C90.7369 55.8846 90.6741 55.8755 90.6099 55.8678C90.5445 55.8596 90.4773 55.8527 90.4093 55.8467C90.343 55.8411 90.2749 55.8363 90.2061 55.8329C90.1372 55.8295 90.0674 55.8269 89.996 55.8256C89.887 55.8239 89.7781 55.8221 89.664 55.826C88.4167 55.8699 87.017 56.7601 86.2088 57.6851C85.2474 58.7866 84.5882 60.0988 84.1319 61.2227C84.4569 59.7616 84.7686 58.1028 84.8311 57.0383C84.8995 55.8734 84.8005 53.9372 82.7894 52.5041C82.6852 52.43 82.5698 52.3598 82.4484 52.2922C82.4088 52.2707 82.3662 52.2504 82.3253 52.2293C82.2391 52.1854 82.1513 52.1423 82.0583 52.1023C82.0086 52.0808 81.9577 52.0608 81.906 52.0405L81.8999 52.0381C81.8099 52.0024 81.7169 51.9688 81.6217 51.9369C81.564 51.918 81.5068 51.899 81.4478 51.8814C81.3462 51.8508 81.2411 51.8237 81.1339 51.7978C81.078 51.7841 81.0233 51.7694 80.966 51.7569C80.8278 51.7272 80.6862 51.7022 80.5419 51.6803C80.5135 51.676 80.4864 51.6699 80.4575 51.6661C80.2849 51.6419 80.1079 51.6252 79.9288 51.614C79.875 51.6105 79.8203 51.6105 79.7665 51.6084C79.6309 51.6028 79.494 51.5993 79.3562 51.601C79.3222 51.6015 79.2881 51.6023 79.2541 51.6036C79.0802 51.6092 78.9045 51.62 78.7289 51.6385C78.7039 51.6411 78.6794 51.645 78.654 51.6475C78.4766 51.6682 78.2983 51.6949 78.1205 51.7302C78.111 51.732 78.1011 51.7337 78.0912 51.7354C77.9108 51.772 77.7313 51.8185 77.5526 51.871C77.5225 51.8801 77.4923 51.8883 77.4622 51.8978C77.2895 51.9516 77.1177 52.0136 76.949 52.0838C76.9188 52.0963 76.8891 52.1096 76.859 52.1225C76.6868 52.197 76.5163 52.2789 76.3497 52.3714C76.3359 52.3792 76.3225 52.3882 76.3083 52.3964C76.1469 52.4881 75.9893 52.5898 75.8347 52.7C75.8158 52.7138 75.7964 52.7259 75.7775 52.7396C75.6233 52.8529 75.4748 52.9778 75.3301 53.11C75.303 53.135 75.2754 53.1604 75.2487 53.1862C75.1079 53.321 74.9715 53.4653 74.8423 53.6203C74.8208 53.6461 74.8001 53.6733 74.7794 53.6995C74.6455 53.8658 74.5168 54.0397 74.3975 54.2288C74.398 54.2296 74.413 54.2279 74.4415 54.2236C74.4647 54.2202 74.5026 54.215 74.5426 54.2098C74.5543 54.2085 74.5624 54.2072 74.5758 54.2055C74.6253 54.1995 74.6851 54.1926 74.7532 54.1857C74.7627 54.1848 74.7729 54.1838 74.7832 54.1829L74.7941 54.1818C74.8544 54.1762 74.9215 54.1711 74.993 54.1659C75.0145 54.1646 75.0343 54.1629 75.0563 54.1616C75.1454 54.156 75.2414 54.1517 75.3452 54.1487C75.3628 54.1483 75.3822 54.1483 75.4003 54.1483C75.4916 54.1465 75.5884 54.1461 75.6892 54.1474C75.7168 54.1478 75.7434 54.1478 75.7714 54.1487C75.8898 54.1513 76.0138 54.1569 76.1434 54.1651C76.1667 54.1663 76.1903 54.1689 76.214 54.1706C76.329 54.1793 76.4474 54.1905 76.5688 54.2051C76.5994 54.2085 76.6295 54.2116 76.6605 54.2154C76.8004 54.2335 76.9443 54.2555 77.0915 54.2826C77.1221 54.2882 77.1535 54.2951 77.1845 54.3007C77.3145 54.3261 77.4467 54.3554 77.581 54.389C77.6112 54.3967 77.6409 54.4032 77.6706 54.4109C77.8243 54.4514 77.9801 54.4979 78.1373 54.5505C78.173 54.5625 78.2088 54.5759 78.2449 54.5884C78.3861 54.6379 78.5287 54.693 78.6716 54.7537C78.6966 54.7641 78.7211 54.7735 78.7461 54.7843C78.9054 54.8545 79.0651 54.9333 79.2244 55.0186C79.2628 55.0392 79.3006 55.0608 79.339 55.0819C79.4884 55.1658 79.6373 55.2554 79.785 55.3545C79.8001 55.3644 79.8156 55.3734 79.8307 55.3837C79.9883 55.4914 80.1441 55.6103 80.2978 55.7364C80.3353 55.767 80.3723 55.7989 80.4097 55.8307C80.5652 55.9642 80.7193 56.1038 80.8687 56.2584C82.488 57.931 82.9952 59.8266 83.1175 61.2856C83.0581 61.1762 82.9943 61.0647 82.928 60.9527C82.9069 60.917 82.8837 60.8808 82.8622 60.8451C82.8152 60.768 82.7674 60.6909 82.7171 60.6134C82.6895 60.5703 82.6598 60.5277 82.631 60.4846C82.5836 60.4136 82.535 60.3425 82.4846 60.2719C82.4523 60.2267 82.4191 60.1815 82.386 60.1363C82.3356 60.0682 82.2839 60.0002 82.231 59.9326L82.221 59.9199C82.1882 59.8786 82.1556 59.8375 82.122 59.796C82.0674 59.7293 82.011 59.6634 81.9537 59.598L81.9306 59.5714C81.9005 59.5368 81.8705 59.5022 81.8396 59.4679C81.7816 59.4039 81.721 59.3418 81.6606 59.2798L81.6454 59.2642C81.6097 59.2276 81.5752 59.1906 81.5387 59.1548C81.4418 59.0601 81.3427 58.9684 81.2407 58.8792C81.2274 58.8676 81.2136 58.856 81.1998 58.8443C81.0973 58.7565 80.9919 58.6721 80.8838 58.5916C80.8429 58.5614 80.8007 58.5338 80.7589 58.5041C80.6823 58.4503 80.6061 58.3969 80.5269 58.347C80.4807 58.318 80.4337 58.291 80.3864 58.2637L80.3762 58.2578C80.3017 58.2139 80.2259 58.1717 80.1497 58.1321C80.0959 58.1045 80.0416 58.0787 79.9869 58.0528C79.9094 58.0171 79.8311 57.9831 79.7519 57.9516C79.6959 57.9292 79.6399 57.9077 79.5831 57.8879C79.5 57.859 79.4152 57.8336 79.3299 57.8099C79.2744 57.7944 79.2197 57.7781 79.1629 57.7647C79.0677 57.7423 78.9708 57.726 78.8731 57.7109C78.8245 57.7032 78.7767 57.6928 78.7271 57.6872C78.2652 57.633 77.7761 57.6584 77.2611 57.788C75.2177 58.3026 74.3493 60.5746 74.6382 63.0314C74.7394 62.91 74.8414 62.7954 74.9422 62.6856C74.9753 62.6494 75.0085 62.6163 75.0412 62.5814C75.1097 62.5095 75.1773 62.4384 75.2457 62.3717C75.2772 62.3409 75.3083 62.3115 75.3394 62.2822L75.3624 62.2606L75.3788 62.2452C75.4356 62.1919 75.4918 62.1391 75.5484 62.0892C75.5893 62.053 75.6298 62.0181 75.6707 61.9832C75.7309 61.9324 75.7904 61.8833 75.8502 61.836C75.8911 61.8032 75.9316 61.7714 75.9725 61.7408C76.0328 61.6952 76.0926 61.6517 76.1529 61.6099C76.1916 61.5828 76.2308 61.5548 76.2696 61.5285C76.3342 61.4854 76.3983 61.4454 76.462 61.4062C76.4956 61.3855 76.5292 61.3636 76.5628 61.3442C76.6472 61.2947 76.7316 61.249 76.8151 61.2059C76.8271 61.1995 76.8405 61.1917 76.8525 61.1857C76.9485 61.137 77.0437 61.0935 77.1384 61.0526C77.1685 61.0397 77.1987 61.029 77.2284 61.0169C77.293 60.9906 77.3576 60.9652 77.4217 60.9424C77.4575 60.9299 77.4932 60.9187 77.5289 60.9071C77.5866 60.8881 77.6443 60.8701 77.7011 60.8537C77.7382 60.8434 77.7752 60.8339 77.8122 60.8244C77.8673 60.8102 77.9225 60.7973 77.9776 60.7856C78.0142 60.7779 78.0503 60.7701 78.0869 60.7637C78.142 60.7534 78.1967 60.7447 78.2514 60.7366C78.2854 60.7314 78.3198 60.7262 78.3539 60.7219C78.4124 60.7146 78.4701 60.7094 78.5274 60.7047C78.5562 60.7025 78.5859 60.6991 78.6144 60.6974C78.6867 60.6931 78.7582 60.6909 78.8288 60.69C78.8421 60.69 78.8559 60.6892 78.8688 60.6892C78.874 60.6892 78.8787 60.6896 78.8839 60.6896C79.0733 60.6901 79.2576 60.7034 79.4354 60.7262C79.4518 60.7284 79.4677 60.731 79.484 60.7331C79.6502 60.7564 79.8113 60.7874 79.9658 60.8257C79.9835 60.83 80.0011 60.8343 80.0188 60.8391C80.1725 60.8787 80.3206 60.9243 80.4614 60.9747C80.473 60.979 80.4859 60.9829 80.4976 60.9872C80.647 61.0414 80.789 61.1 80.9212 61.1603C80.9238 61.1612 80.926 61.1625 80.9286 61.1637C81.0599 61.224 81.1817 61.286 81.2954 61.3472C81.3059 61.3531 81.3172 61.3594 81.3281 61.3653C81.4319 61.4221 81.5279 61.4777 81.6149 61.5306C81.6256 61.5371 81.6368 61.544 81.6471 61.5505C81.732 61.6026 81.8077 61.6508 81.874 61.6943C81.9507 61.7442 82.0161 61.7877 82.0661 61.82C82.401 62.0565 82.665 62.3299 82.8807 62.6184C81.3113 63.8763 79.4165 66.2422 78.4223 68.5276C77.8622 69.8505 77.4544 71.1261 77.2 72.4412C76.3156 71.0275 75.4619 69.596 74.6361 68.1521C74.5551 68.0104 74.4772 67.8675 74.3967 67.7258C69.1577 58.3848 64.9362 48.6081 61.5426 38.5338C61.5344 38.5342 61.5266 38.5347 61.5185 38.5355C61.1555 37.4529 60.8059 36.3664 60.4623 35.2773C60.4275 35.1664 60.3921 35.0549 60.3568 34.944C60.3136 34.8078 60.1694 34.33 60.044 33.9143L60.0197 33.8339C59.9565 33.6246 59.8996 33.4368 59.8673 33.3313C59.86 33.3085 59.8505 33.2732 59.8367 33.2297C59.8169 33.1745 59.7915 33.1069 59.7597 33.0307C59.7403 32.9864 59.7197 32.9416 59.6934 32.8955C59.6025 32.7409 59.3911 32.6255 59.3145 32.5984C59.3111 32.5971 59.3042 32.5932 59.3012 32.5923C59.2758 32.5846 59.2469 32.5777 59.2211 32.5699C59.0837 32.5295 58.9416 32.4894 58.7935 32.4511C58.7647 32.4433 58.7363 32.4351 58.707 32.4278C58.5107 32.3774 58.3027 32.3288 58.0891 32.2814L58.0694 32.277C57.9986 32.2613 57.9278 32.2455 57.8549 32.2302C57.6758 32.1923 57.4924 32.1552 57.3034 32.1195C57.182 32.0964 57.0563 32.0742 56.9308 32.052L56.9133 32.0489C56.8448 32.0368 56.7786 32.0243 56.7088 32.0127C56.7088 32.0127 56.7092 32.0136 56.7092 32.0144C56.2864 31.9425 55.849 31.8745 55.3844 31.8142C54.2559 31.6841 53.1154 31.5747 51.9551 31.505L51.8772 31.5011C51.2955 31.4666 50.7125 31.4369 50.1235 31.4184C49.5177 31.3982 48.9076 31.387 48.2937 31.3857C48.2605 31.3857 48.2282 31.3853 48.1951 31.3853C48.1611 31.3853 48.1279 31.3857 48.0944 31.3857C47.9277 31.3878 47.7624 31.3934 47.5953 31.3947C47.0378 31.3999 46.4802 31.4059 45.9287 31.4249C45.8951 31.4257 45.8615 31.4275 45.8279 31.4283C45.6157 31.4374 45.4064 31.4529 45.1942 31.4632L45.0939 31.4679C44.6172 31.4904 44.1407 31.5129 43.6692 31.5459C43.6196 31.5493 43.5701 31.5532 43.5206 31.5566C43.0255 31.5945 42.545 31.6385 42.0796 31.6876C40.0697 31.899 38.354 32.2116 37.089 32.5928C37.0189 32.6139 36.7528 32.7491 36.6736 32.9282C36.5944 33.1078 36.5388 33.2667 36.519 33.3317C36.3205 33.979 36.1173 34.6249 35.9128 35.2705C32.3328 46.5484 27.7526 57.4762 21.9126 67.8644C21.8583 67.9605 21.8054 68.0569 21.7507 68.1525C21.5126 68.569 21.2663 68.9819 21.0239 69.3967C20.4052 67.3102 19.5841 65.3508 18.6697 63.475C18.0118 62.1241 17.1507 60.3076 16.2595 58.8469C16.3404 58.7922 16.4308 58.7414 16.5247 58.6928C16.5501 58.6798 16.5759 58.6673 16.6021 58.6549C16.6831 58.6161 16.7679 58.5791 16.8571 58.5455C16.8764 58.5377 16.8949 58.5295 16.9147 58.5227C17.0228 58.4835 17.1365 58.449 17.2536 58.418C17.2807 58.4107 17.3087 58.4051 17.3362 58.3986C17.4336 58.3754 17.533 58.3547 17.6355 58.3375C17.6673 58.3323 17.6983 58.3267 17.7306 58.3215C17.8594 58.303 17.9907 58.288 18.1263 58.2798C18.1431 58.2789 18.1603 58.2789 18.1771 58.2781C18.2994 58.2716 18.4242 58.2703 18.5508 58.2733C18.5823 58.2742 18.6137 58.2746 18.6456 58.2763C18.7859 58.2824 18.928 58.2927 19.0722 58.3112C19.0877 58.3129 19.1032 58.3164 19.1183 58.3185C19.2509 58.3366 19.3844 58.3612 19.5187 58.39C19.5506 58.3969 19.5824 58.4034 19.6147 58.4111C19.7602 58.4456 19.9066 58.4865 20.0526 58.5351C20.0776 58.5433 20.1012 58.5532 20.1262 58.5614C20.2562 58.6066 20.3863 58.6587 20.5154 58.7156C20.5447 58.7285 20.574 58.7406 20.6033 58.7543C20.7479 58.8215 20.8917 58.8969 21.0338 58.98C21.0631 58.9972 21.0924 59.0157 21.1216 59.0338C21.2482 59.1109 21.3731 59.1944 21.4967 59.2849C21.5203 59.3021 21.544 59.318 21.5681 59.3361C21.7055 59.4403 21.8407 59.5549 21.9733 59.6772C22.0039 59.7052 22.034 59.7353 22.0641 59.7642C22.186 59.8813 22.3057 60.0058 22.4219 60.1388C22.4357 60.1552 22.4503 60.1694 22.465 60.1858C22.5898 60.3326 22.7104 60.4915 22.8279 60.6582C22.8559 60.6982 22.8839 60.7391 22.911 60.7801C23.0281 60.9549 23.1431 61.1362 23.2507 61.3326C23.2976 61.1233 23.3334 60.9174 23.3618 60.7137C23.3708 60.6448 23.3747 60.5785 23.382 60.5105C23.3962 60.3774 23.41 60.2443 23.4165 60.1147C23.4204 60.0363 23.4186 59.9601 23.4195 59.8826C23.4212 59.7668 23.4221 59.6514 23.4169 59.539C23.4135 59.4589 23.4057 59.3813 23.3988 59.303C23.3898 59.197 23.3799 59.0915 23.3648 58.989C23.3545 58.9141 23.341 58.8416 23.3273 58.7684L23.3256 58.7595C23.3067 58.6609 23.286 58.5631 23.2623 58.468C23.2438 58.3943 23.224 58.322 23.2021 58.2505C23.1745 58.1579 23.1431 58.0675 23.1099 57.9783C23.0845 57.9103 23.0591 57.8431 23.0307 57.7772C22.9933 57.6898 22.9519 57.6063 22.9097 57.5236L22.9049 57.5141C22.8755 57.4561 22.846 57.3978 22.8142 57.3423C22.7664 57.2596 22.7138 57.1817 22.6609 57.1041C22.6256 57.052 22.5915 56.9982 22.5537 56.9482C22.4921 56.8673 22.4249 56.7928 22.3578 56.7183C22.322 56.6787 22.2889 56.636 22.2514 56.5981C22.1558 56.5017 22.0542 56.413 21.9487 56.3294C21.935 56.3187 21.9229 56.3057 21.9091 56.295C21.7881 56.2028 21.6603 56.1193 21.5272 56.0443C21.4859 56.0211 21.4415 56.0039 21.3998 55.9823C21.3046 55.9341 21.2095 55.8867 21.1087 55.8475C21.0532 55.826 20.9942 55.8101 20.9374 55.7911C20.8452 55.7606 20.7527 55.7308 20.6566 55.708C20.5921 55.6925 20.5249 55.6826 20.459 55.6705C20.3643 55.6538 20.2696 55.6383 20.1714 55.6288C20.1004 55.6219 20.0276 55.6189 19.9548 55.6159C19.8463 55.6111 19.7374 55.609 19.625 55.6133C19.5785 55.615 19.5321 55.6163 19.4847 55.6197C19.3168 55.6314 19.1467 55.6495 18.9715 55.6817C18.1198 55.863 16.7696 56.7497 16.002 57.8629C16.3133 56.7704 16.7929 55.7476 17.1007 55.3256C17.9562 54.1504 19.2126 53.4704 20.3863 53.3408C20.5826 53.3193 20.7893 53.3077 20.9998 53.3055C21.0273 53.3055 21.0545 53.3038 21.082 53.3038C21.1143 53.3042 21.1466 53.3059 21.1798 53.3068C21.2624 53.3085 21.3464 53.3128 21.4303 53.3193C21.4695 53.3223 21.5087 53.3257 21.5479 53.3296C21.6344 53.3382 21.7223 53.3503 21.8101 53.3645C21.8424 53.3697 21.8738 53.3735 21.9065 53.3791C22.0249 53.4007 22.1442 53.4274 22.2639 53.4601C22.2876 53.4666 22.3108 53.4752 22.3345 53.4821C22.4314 53.5105 22.5282 53.5428 22.6255 53.5794C22.6639 53.594 22.7026 53.61 22.7409 53.6259C22.8279 53.6616 22.9149 53.7017 23.0014 53.7452C23.038 53.7633 23.0742 53.7809 23.1108 53.8003C23.2309 53.8653 23.351 53.9355 23.4699 54.016C23.3067 51.2255 21.4187 50.3255 20.0793 50.1278C19.9243 50.105 19.7684 50.0973 19.613 50.099C19.5446 50.0998 19.4769 50.1097 19.4081 50.1153C19.3146 50.1231 19.2212 50.1291 19.1286 50.1451C19.0585 50.1571 18.9896 50.1774 18.9198 50.1941C18.8298 50.2161 18.7398 50.2372 18.6512 50.2669C18.581 50.2902 18.5125 50.3203 18.4436 50.3483C18.3571 50.3836 18.2701 50.4194 18.1849 50.4616C18.1164 50.496 18.0492 50.5356 17.9817 50.5744C17.8986 50.6226 17.815 50.6717 17.7341 50.7264C17.6682 50.7712 17.6032 50.8199 17.5386 50.869C17.4594 50.9292 17.381 50.9908 17.304 51.0576C17.2411 51.1123 17.1795 51.1695 17.1184 51.2281C17.0435 51.2996 16.9703 51.3737 16.8984 51.4512C16.8394 51.5153 16.7817 51.5812 16.7249 51.6488C16.656 51.7311 16.5888 51.8164 16.5229 51.9046C16.4683 51.9774 16.4153 52.0515 16.3632 52.1281C16.3003 52.2207 16.2401 52.3168 16.1806 52.4149C16.132 52.4959 16.0833 52.5773 16.0373 52.6621C15.9813 52.7646 15.9288 52.8714 15.8771 52.9791L15.8672 52.9998C15.8279 53.0815 15.7888 53.1628 15.7522 53.2478C15.704 53.3602 15.6597 53.4769 15.6162 53.594C15.5809 53.6892 15.5447 53.7831 15.5124 53.8813C15.4724 54.0036 15.4379 54.1306 15.4026 54.2572C15.3755 54.358 15.3458 54.4566 15.3217 54.5599C15.2907 54.693 15.2666 54.8308 15.2412 54.9682C15.2218 55.072 15.2003 55.1736 15.1848 55.2795C15.1633 55.4264 15.1503 55.5784 15.1361 55.73C15.1267 55.8325 15.1129 55.9328 15.1069 56.0375C15.0965 56.2076 15.0965 56.3824 15.0957 56.5572C15.0948 56.6485 15.0892 56.7377 15.0914 56.8303C15.0974 57.0998 15.1137 57.3746 15.143 57.6541C15.0552 57.4405 14.9626 57.2351 14.8675 57.0348C14.8373 56.9711 14.8046 56.9099 14.7736 56.8471C14.7069 56.7127 14.6388 56.5801 14.5691 56.4522C14.5361 56.3921 14.5028 56.3337 14.4694 56.2753L14.4546 56.2493C14.3865 56.1309 14.3172 56.0151 14.2466 55.9022C14.207 55.8394 14.1678 55.7765 14.1278 55.7149C14.0503 55.5965 13.9711 55.4824 13.8901 55.3704C13.8561 55.3226 13.8225 55.2726 13.7876 55.2266C13.6718 55.0711 13.5539 54.9208 13.4333 54.7783C13.4234 54.7666 13.4126 54.7559 13.4027 54.7443C13.2917 54.6146 13.1789 54.4902 13.0643 54.3713C13.0234 54.3287 12.9821 54.2891 12.9408 54.2482C12.8547 54.1625 12.7685 54.0785 12.6807 53.9988C12.6342 53.9558 12.5864 53.9144 12.539 53.8731C12.4538 53.799 12.3681 53.728 12.2811 53.659C12.2342 53.622 12.1873 53.5846 12.1404 53.5488C12.0444 53.4765 11.9479 53.408 11.8502 53.3425C11.8131 53.3171 11.7761 53.29 11.7387 53.2654C11.6035 53.1776 11.4674 53.0949 11.3309 53.0191C11.3128 53.0092 11.2948 53.001 11.2767 52.9916C11.1583 52.9274 11.0386 52.8671 10.9193 52.812C10.8745 52.7918 10.8302 52.7732 10.7854 52.7539C10.6911 52.7129 10.5969 52.6742 10.503 52.6389C10.4535 52.6204 10.4044 52.6031 10.3549 52.5859C10.2623 52.554 10.1702 52.5252 10.078 52.4989C10.0311 52.4856 9.98375 52.4714 9.93682 52.4593C9.83348 52.4326 9.73058 52.4102 9.62767 52.39C9.59366 52.3835 9.55922 52.3749 9.52563 52.3689C9.38872 52.3447 9.25222 52.3262 9.11703 52.3137C9.09335 52.3116 9.07054 52.3116 9.04686 52.3094C8.93621 52.3008 8.82599 52.2957 8.71706 52.2944C8.68305 52.2944 8.64945 52.2957 8.61587 52.2961C8.46345 52.2982 8.31364 52.3069 8.16553 52.3237C8.14486 52.3258 8.12377 52.3267 8.10354 52.3297C7.94423 52.3499 7.78879 52.3805 7.63551 52.418C7.60107 52.4266 7.56706 52.4356 7.53305 52.4447C7.38021 52.486 7.2295 52.5338 7.08397 52.5919C7.07493 52.5954 7.06676 52.6001 7.05772 52.6036C6.91908 52.6604 6.78518 52.7272 6.65429 52.7995C6.62587 52.8154 6.59617 52.8309 6.56775 52.8477C6.43558 52.9257 6.3077 53.0105 6.18543 53.1044C6.16347 53.1212 6.14238 53.1397 6.12128 53.1569C6.01106 53.2456 5.90513 53.3404 5.80438 53.4424C5.78673 53.4601 5.76865 53.476 5.75143 53.4941C5.64293 53.6078 5.54216 53.7301 5.44615 53.8593C5.42506 53.8873 5.40483 53.9166 5.38416 53.9459C5.28901 54.0815 5.19859 54.2219 5.11851 54.3735C4.36203 55.8686 4.39778 57.7182 4.55407 58.8069C5.11766 58.2238 5.83408 57.5442 6.74987 56.9849C6.87946 56.9056 7.00991 56.8363 7.14037 56.7721C7.18127 56.7519 7.22177 56.7347 7.26267 56.7157C7.35438 56.6739 7.44607 56.6347 7.53778 56.5994C7.58256 56.5822 7.62734 56.5654 7.67212 56.5499C7.76641 56.5172 7.86068 56.4879 7.95411 56.4612C7.99114 56.4509 8.02818 56.4388 8.06477 56.4293C8.19308 56.3962 8.32094 56.3682 8.44752 56.3458C8.47034 56.3419 8.49274 56.3393 8.51556 56.3359C8.62061 56.3187 8.72525 56.3045 8.82901 56.2941C8.87164 56.2898 8.91339 56.2868 8.95602 56.2833C9.04041 56.2769 9.12479 56.2722 9.20745 56.2691C9.25008 56.2678 9.29226 56.2661 9.33446 56.2657C9.39258 56.2653 9.449 56.2665 9.5054 56.2674C9.604 56.2691 9.7 56.2726 9.79515 56.2786C9.84509 56.2816 9.89461 56.2851 9.94412 56.2894C10.0397 56.298 10.1327 56.3079 10.2235 56.3195C10.2653 56.3247 10.3075 56.3294 10.3484 56.3355C10.4608 56.3518 10.5693 56.3703 10.6735 56.3906C10.6886 56.3936 10.7049 56.3957 10.72 56.3988C10.8401 56.4229 10.9542 56.4483 11.0627 56.475C11.0946 56.4827 11.1234 56.4905 11.154 56.4982C11.2293 56.5172 11.3012 56.5361 11.3692 56.5555L11.3809 56.5588C11.4116 56.5675 11.4414 56.576 11.4709 56.5848C11.5299 56.602 11.5849 56.6184 11.6375 56.6343C11.6693 56.6442 11.7025 56.6541 11.7322 56.6636L11.8975 56.7157C11.9578 56.7347 12.0116 56.7515 12.0517 56.7626C12.3858 56.8544 13.5827 57.453 14.6061 58.2518C14.6083 58.2561 14.61 58.2608 14.6121 58.2651C14.4007 58.1687 14.1816 58.0834 13.9586 58.0068C13.9414 58.0007 13.9241 57.9938 13.9069 57.9882C13.6938 57.9167 13.4764 57.8569 13.2568 57.8052C13.2288 57.7988 13.2004 57.791 13.1724 57.785C12.9584 57.7376 12.7423 57.7014 12.5257 57.6743C12.4913 57.67 12.4573 57.6653 12.4228 57.6618C12.2088 57.6381 11.9944 57.6261 11.7808 57.6239C11.7318 57.6235 11.6823 57.6235 11.6332 57.6239C11.5609 57.6248 11.4885 57.6278 11.4162 57.6317C11.3537 57.6347 11.2917 57.6386 11.2293 57.6437C11.157 57.6498 11.0851 57.6579 11.0136 57.667C10.9525 57.6747 10.8913 57.6821 10.8306 57.692C10.7587 57.7032 10.6877 57.7174 10.6166 57.7316C10.5578 57.7432 10.4985 57.7549 10.4401 57.769C10.3682 57.7863 10.298 57.8061 10.2274 57.8267C10.171 57.8431 10.1142 57.8582 10.0586 57.8763C9.99195 57.8982 9.92712 57.9232 9.86173 57.9483L9.84639 57.9542C9.79387 57.974 9.74091 57.993 9.68925 58.0149C9.61605 58.0459 9.54544 58.0817 9.47397 58.117C9.42747 58.1402 9.37925 58.1614 9.33362 58.1859C9.26266 58.2243 9.19419 58.267 9.12563 58.3098L9.10541 58.3224C9.06838 58.3457 9.03006 58.3663 8.99346 58.3904C8.88324 58.4645 8.7756 58.5433 8.67184 58.6295C8.0738 59.1225 7.38924 60.1996 7.26869 61.1375C7.1279 62.2291 7.36816 63.1326 7.82884 63.7105C8.64818 61.2068 10.9348 59.7887 12.6803 59.2543C12.7169 59.2431 12.7642 59.2311 12.8159 59.2194C12.8314 59.216 12.8482 59.2121 12.865 59.2091C12.9072 59.2 12.9532 59.191 13.0028 59.1824C13.0221 59.1789 13.0398 59.1755 13.06 59.1725C13.1285 59.1613 13.2021 59.1505 13.2813 59.1406C13.2994 59.1385 13.3192 59.1363 13.3382 59.1342C13.4023 59.1264 13.4703 59.1199 13.5409 59.1135C13.5707 59.1109 13.6008 59.1088 13.6314 59.1062C13.7041 59.1006 13.7795 59.0963 13.8566 59.0928C13.8802 59.092 13.9017 59.0902 13.9254 59.0894C14.0214 59.0859 14.1205 59.0846 14.2212 59.0851C14.3088 59.0855 14.398 59.0889 14.4881 59.0923L14.4916 59.0924C14.5299 59.0941 14.567 59.0941 14.6057 59.0963C14.7366 59.104 14.8688 59.1148 15.0022 59.1307C17.0831 63.9586 18.0363 69.2718 18.2942 73.8391C17.6027 74.9088 16.8979 75.9699 16.1647 77.0107C16.0467 77.1774 15.9232 77.3406 15.8035 77.5064C13.7132 74.7675 11.0795 72.4404 9.43135 71.2583C9.37796 71.2101 9.31725 71.173 9.2531 71.142C9.80033 70.6459 10.4474 70.3354 11.011 70.2627C11.1682 70.2424 11.324 70.2304 11.4786 70.2226C11.5225 70.2205 11.5656 70.2192 11.6091 70.2183C11.7206 70.2153 11.8308 70.217 11.941 70.2209C11.9966 70.2226 12.0525 70.2239 12.1076 70.2278C12.2321 70.2364 12.3552 70.251 12.4783 70.2696C12.5111 70.2747 12.5447 70.2769 12.5774 70.2825C12.7319 70.3092 12.8856 70.3445 13.0385 70.388C13.079 70.3996 13.1194 70.4151 13.1595 70.4276C13.2727 70.4633 13.3846 70.5017 13.4966 70.5469C13.55 70.5684 13.6025 70.5925 13.6555 70.6162C13.7558 70.661 13.8565 70.7101 13.9564 70.7639C14.0107 70.7928 14.0645 70.8221 14.1183 70.8535C14.2221 70.9142 14.3258 70.981 14.4296 71.0512C14.4761 71.083 14.5234 71.1123 14.5695 71.1459C14.7185 71.2536 14.867 71.369 15.0152 71.4973C15.0462 71.3216 15.0634 71.1554 15.0737 70.9947C15.0767 70.9435 15.0759 70.8953 15.0767 70.8453C15.0793 70.7377 15.0784 70.6326 15.0715 70.5318C15.0677 70.4793 15.0629 70.4285 15.0573 70.3776C15.0461 70.2829 15.0306 70.1912 15.0121 70.1029C15.0031 70.0585 14.9945 70.0133 14.9833 69.9707C14.9562 69.8695 14.9234 69.773 14.8868 69.6804C14.8778 69.6576 14.8709 69.6326 14.861 69.6102C14.8128 69.4974 14.7564 69.3919 14.6944 69.2924C14.6772 69.2644 14.6569 69.2395 14.6384 69.2128C14.5911 69.143 14.5411 69.0758 14.4877 69.0125C14.461 68.9811 14.4335 68.9518 14.4055 68.9221C14.3543 68.8678 14.3013 68.8157 14.2458 68.7671C14.2156 68.7404 14.1855 68.7137 14.1545 68.6887C14.092 68.6392 14.0279 68.5931 13.962 68.5496C13.9349 68.5319 13.9095 68.5126 13.8819 68.4958C13.7885 68.4389 13.6925 68.3868 13.5935 68.3407C13.5724 68.3313 13.5508 68.3239 13.5302 68.3145C13.4497 68.2796 13.3687 68.2473 13.2865 68.2193C13.2495 68.2072 13.2124 68.1965 13.1754 68.1857C13.1065 68.165 13.0372 68.1465 12.9675 68.1306C12.9279 68.1215 12.8887 68.1129 12.8495 68.1052C12.7784 68.0918 12.7074 68.0811 12.6364 68.072C12.6002 68.0677 12.5645 68.0621 12.5283 68.0587C12.4323 68.0496 12.3367 68.0445 12.242 68.0436C12.2329 68.0436 12.2235 68.0423 12.2144 68.0423H12.2101C12.0611 68.0423 11.9169 68.0561 11.777 68.0755C11.7421 68.0806 11.7077 68.0858 11.6737 68.0918C11.5355 68.1164 11.4011 68.1465 11.2784 68.1896C10.5069 68.4906 9.44296 69.2162 8.95213 70.3217C8.98227 70.0077 9.02878 69.6895 9.10499 69.3665C9.3659 68.2611 9.79129 67.5337 10.7419 66.8456C10.8405 66.7741 10.9486 66.7082 11.0618 66.6449C11.0967 66.6255 11.1329 66.6079 11.1686 66.5893C11.2517 66.5463 11.3378 66.5049 11.427 66.4666C11.4687 66.4485 11.5096 66.4309 11.5522 66.4141C11.6495 66.3753 11.7494 66.34 11.851 66.3064C11.8846 66.2956 11.9165 66.2836 11.9501 66.2732C12.0861 66.2319 12.2256 66.1957 12.3668 66.1652C12.3953 66.1591 12.4245 66.1548 12.453 66.1492C12.5666 66.1268 12.6807 66.1074 12.7957 66.0924C12.8417 66.0859 12.8882 66.0816 12.9343 66.0764C13.0359 66.0657 13.1375 66.0584 13.2378 66.0541C13.2831 66.0519 13.3282 66.0493 13.373 66.0485C13.4738 66.0472 13.5728 66.051 13.6714 66.0562C13.7175 66.0588 13.7653 66.0588 13.8109 66.0627C13.9521 66.0747 14.0907 66.0932 14.2242 66.1204C14.1601 65.9485 14.0877 65.7918 14.0098 65.6458C13.984 65.5976 13.9538 65.5562 13.9267 65.5106C13.8716 65.4189 13.8156 65.328 13.7545 65.2475C13.7183 65.2001 13.6783 65.1583 13.64 65.1148C13.5805 65.0472 13.5203 64.9813 13.4548 64.9228C13.4105 64.8827 13.364 64.8465 13.317 64.8108C13.2507 64.7596 13.1823 64.7118 13.1104 64.6683C13.0592 64.6377 13.0066 64.6088 12.9528 64.5821C12.8766 64.5447 12.7978 64.5115 12.716 64.4818C12.6592 64.4611 12.6019 64.4396 12.5429 64.4224C12.4547 64.397 12.3617 64.3776 12.267 64.3599C12.2067 64.3487 12.1481 64.3354 12.0848 64.3272C11.9767 64.313 11.8618 64.307 11.746 64.3022C11.6896 64.2996 11.6366 64.2936 11.5781 64.2932C11.4002 64.2923 11.2147 64.2992 11.0188 64.3169C9.68495 64.4374 8.89316 65.17 8.52547 65.5933C7.45641 67.1466 7.54509 68.7382 7.9554 70.0008C6.34687 67.3455 4.57386 66.262 2.94121 66.2168C2.88094 66.2151 2.82195 66.2233 2.76168 66.228C2.71432 66.2319 2.66653 66.2328 2.61917 66.2405C2.56621 66.2491 2.51412 66.2646 2.46202 66.278C2.41595 66.29 2.36946 66.2991 2.32382 66.3142C2.27129 66.3322 2.21961 66.3568 2.16751 66.3792C2.12274 66.3986 2.07883 66.4149 2.03491 66.4377C1.98238 66.4649 1.93158 66.4985 1.88034 66.5303C1.83815 66.5566 1.79596 66.5794 1.75462 66.6087C1.70296 66.6449 1.653 66.6879 1.60263 66.7289C1.56345 66.7607 1.52342 66.79 1.48553 66.8245C1.43515 66.8705 1.38651 66.9231 1.33742 66.9735C1.30169 67.0101 1.26553 67.0441 1.23065 67.0833C1.182 67.1384 1.13593 67.2 1.08943 67.2594C1.05714 67.3007 1.02355 67.3395 0.99212 67.383C0.946482 67.4467 0.903844 67.5165 0.860358 67.5845C0.831512 67.6302 0.800537 67.6737 0.772982 67.721C0.730788 67.793 0.692883 67.8705 0.653703 67.9463C0.62787 67.9967 0.600328 68.044 0.575786 68.0961C0.538328 68.1754 0.505168 68.2602 0.470724 68.3433C0.448335 68.3976 0.423801 68.4492 0.403135 68.5052C0.370413 68.5926 0.341977 68.6852 0.31313 68.7765C0.295047 68.8334 0.274385 68.8876 0.258024 68.9462C0.230899 69.0409 0.208955 69.1409 0.185705 69.2395C0.171497 69.2993 0.15513 69.3562 0.142214 69.4173C0.121117 69.5207 0.105607 69.6283 0.0888153 69.7351C0.0793432 69.7958 0.0668541 69.8544 0.0586736 69.916C0.0444654 70.0275 0.0362959 70.1438 0.0268238 70.2588C0.0220878 70.3199 0.0138966 70.3785 0.0104522 70.4401C0.00398168 70.557 0.003601 70.6777 0.00322185 70.7979L0.00314668 70.8212C0.00314668 70.8772 -0.000736471 70.9306 0.000124631 70.987C0.00313848 71.173 0.0130544 71.3625 0.0298459 71.555C0.829809 70.6743 1.7107 69.8949 2.49947 69.6602C2.62777 69.6202 2.75478 69.5857 2.87964 69.5564C2.93088 69.5444 2.98082 69.5366 3.03206 69.5263C3.10482 69.5116 3.17802 69.4948 3.24949 69.4836C3.30546 69.4746 3.36016 69.4703 3.4157 69.4634C3.48028 69.4552 3.54615 69.4453 3.60987 69.4401C3.66628 69.4354 3.72138 69.4354 3.77735 69.4328C3.83849 69.4302 3.90005 69.4255 3.96033 69.4255C3.97626 69.4255 3.9922 69.4268 4.00813 69.4272C4.14547 69.4285 4.28067 69.4371 4.41371 69.4509C4.4516 69.4548 4.48904 69.4587 4.5265 69.4634C4.67031 69.4819 4.8124 69.5056 4.9519 69.5383C4.9631 69.5409 4.97471 69.5448 4.98591 69.5474C5.11636 69.5788 5.2451 69.6176 5.37168 69.6606C5.40655 69.6723 5.44185 69.6843 5.47629 69.6968C5.61106 69.7459 5.74496 69.7993 5.87628 69.86C5.8836 69.8635 5.89008 69.8673 5.89696 69.8704C6.02355 69.9298 6.14797 69.9957 6.27154 70.0654C6.30383 70.0835 6.3361 70.102 6.36882 70.121C6.4967 70.1963 6.62371 70.2747 6.749 70.36C6.75201 70.3617 6.75505 70.3643 6.75807 70.366C6.8812 70.4504 7.00347 70.5404 7.12489 70.6334C7.15589 70.6576 7.18731 70.6812 7.21831 70.7058C7.34016 70.8022 7.46201 70.9013 7.58256 71.0051C7.39915 70.9125 7.21486 70.8277 7.02929 70.7523C7.02326 70.7501 7.01768 70.748 7.01165 70.7454C6.83211 70.6731 6.65213 70.6093 6.47173 70.5568C6.46054 70.5538 6.44936 70.5512 6.43859 70.5477C6.26336 70.4978 6.08768 70.4577 5.91244 70.4297C5.89737 70.4276 5.88231 70.4259 5.86724 70.4237C5.69588 70.3983 5.52495 70.3841 5.35489 70.3828C5.31312 70.3824 5.27135 70.3837 5.22959 70.385C5.18783 70.3863 5.14694 70.3871 5.10561 70.3901C5.05794 70.3936 5.01034 70.3992 4.9631 70.4048C4.92219 70.4095 4.88172 70.4138 4.84082 70.4198C4.79346 70.4276 4.74565 70.4379 4.69829 70.4474C4.65825 70.456 4.61778 70.4629 4.57817 70.4732C4.52994 70.4853 4.48174 70.5008 4.43395 70.5154C4.3952 70.5271 4.35644 70.5378 4.31769 70.5512C4.27239 70.5675 4.22708 70.5863 4.18212 70.6051L4.17087 70.6098C4.13385 70.6248 4.09639 70.6386 4.05979 70.6554C4.00856 70.6791 3.95776 70.7071 3.90696 70.7338C3.87294 70.7519 3.83934 70.7674 3.80576 70.7867C3.74806 70.8199 3.69166 70.8578 3.63526 70.8948C3.60814 70.9129 3.58102 70.928 3.55432 70.9469C3.47123 71.0055 3.38813 71.0684 3.30633 71.1369C2.17829 72.0808 1.63665 74.5173 2.94423 76.5555C3.06608 75.8484 3.28739 75.0733 3.76573 74.2538C4.37539 73.2117 5.30881 72.4326 6.23535 72.1764C6.41963 72.1252 6.59271 72.0855 6.76235 72.0511C6.81229 72.0412 6.86138 72.0326 6.91004 72.024C7.03748 72.0011 7.1619 71.9826 7.28374 71.9693C7.32594 71.9645 7.36857 71.9585 7.41033 71.9551C7.56619 71.9413 7.71948 71.934 7.87147 71.9344C8.04885 71.9348 8.22581 71.9443 8.40535 71.9632C10.884 74.8584 12.5132 77.7966 13.556 80.486C12.7789 81.4618 11.985 82.419 11.1659 83.3544L11.2214 83.4726C17.1495 81.3032 24.8326 79.4308 27.2324 78.8711Z" fill="#EEDB5F"/>
<g style="mix-blend-mode:difference" opacity="0.5">
<path d="M276.71 36.124C277.726 35.308 278.522 34.64 279.098 34.12C279.674 33.592 280.158 33.044 280.55 32.476C280.95 31.9 281.15 31.336 281.15 30.784C281.15 30.264 281.022 29.856 280.766 29.56C280.518 29.256 280.114 29.104 279.554 29.104C279.01 29.104 278.586 29.276 278.282 29.62C277.986 29.956 277.826 30.408 277.802 30.976H276.746C276.778 30.08 277.05 29.388 277.562 28.9C278.074 28.412 278.734 28.168 279.542 28.168C280.366 28.168 281.018 28.396 281.498 28.852C281.986 29.308 282.23 29.936 282.23 30.736C282.23 31.4 282.03 32.048 281.63 32.68C281.238 33.304 280.79 33.856 280.286 34.336C279.782 34.808 279.138 35.36 278.354 35.992H282.482V36.904H276.71V36.124ZM276.209 46.572C276.209 45.196 276.433 44.124 276.881 43.356C277.329 42.58 278.113 42.192 279.233 42.192C280.345 42.192 281.125 42.58 281.573 43.356C282.021 44.124 282.245 45.196 282.245 46.572C282.245 47.972 282.021 49.06 281.573 49.836C281.125 50.612 280.345 51 279.233 51C278.113 51 277.329 50.612 276.881 49.836C276.433 49.06 276.209 47.972 276.209 46.572ZM281.165 46.572C281.165 45.876 281.117 45.288 281.021 44.808C280.933 44.32 280.745 43.928 280.457 43.632C280.177 43.336 279.769 43.188 279.233 43.188C278.689 43.188 278.273 43.336 277.985 43.632C277.705 43.928 277.517 44.32 277.421 44.808C277.333 45.288 277.289 45.876 277.289 46.572C277.289 47.292 277.333 47.896 277.421 48.384C277.517 48.872 277.705 49.264 277.985 49.56C278.273 49.856 278.689 50.004 279.233 50.004C279.769 50.004 280.177 49.856 280.457 49.56C280.745 49.264 280.933 48.872 281.021 48.384C281.117 47.896 281.165 47.292 281.165 46.572ZM276.71 64.124C277.726 63.308 278.522 62.64 279.098 62.12C279.674 61.592 280.158 61.044 280.55 60.476C280.95 59.9 281.15 59.336 281.15 58.784C281.15 58.264 281.022 57.856 280.766 57.56C280.518 57.256 280.114 57.104 279.554 57.104C279.01 57.104 278.586 57.276 278.282 57.62C277.986 57.956 277.826 58.408 277.802 58.976H276.746C276.778 58.08 277.05 57.388 277.562 56.9C278.074 56.412 278.734 56.168 279.542 56.168C280.366 56.168 281.018 56.396 281.498 56.852C281.986 57.308 282.23 57.936 282.23 58.736C282.23 59.4 282.03 60.048 281.63 60.68C281.238 61.304 280.79 61.856 280.286 62.336C279.782 62.808 279.138 63.36 278.354 63.992H282.482V64.904H276.71V64.124ZM276.654 72.508C276.71 71.772 276.994 71.196 277.506 70.78C278.018 70.364 278.682 70.156 279.498 70.156C280.042 70.156 280.51 70.256 280.902 70.456C281.302 70.648 281.602 70.912 281.802 71.248C282.01 71.584 282.114 71.964 282.114 72.388C282.114 72.884 281.97 73.312 281.682 73.672C281.402 74.032 281.034 74.264 280.578 74.368V74.428C281.098 74.556 281.51 74.808 281.814 75.184C282.118 75.56 282.27 76.052 282.27 76.66C282.27 77.116 282.166 77.528 281.958 77.896C281.75 78.256 281.438 78.54 281.022 78.748C280.606 78.956 280.106 79.06 279.522 79.06C278.674 79.06 277.978 78.84 277.434 78.4C276.89 77.952 276.586 77.32 276.522 76.504H277.578C277.634 76.984 277.83 77.376 278.166 77.68C278.502 77.984 278.95 78.136 279.51 78.136C280.07 78.136 280.494 77.992 280.782 77.704C281.078 77.408 281.226 77.028 281.226 76.564C281.226 75.964 281.026 75.532 280.626 75.268C280.226 75.004 279.622 74.872 278.814 74.872H278.538V73.96H278.826C279.562 73.952 280.118 73.832 280.494 73.6C280.87 73.36 281.058 72.992 281.058 72.496C281.058 72.072 280.918 71.732 280.638 71.476C280.366 71.22 279.974 71.092 279.462 71.092C278.966 71.092 278.566 71.22 278.262 71.476C277.958 71.732 277.778 72.076 277.722 72.508H276.654Z" fill="grey"/>
</g>
</svg>
