<?xml version="1.0" encoding="UTF-8"?>
<svg id="Layer_2" data-name="Layer 2" xmlns="http://www.w3.org/2000/svg" viewBox="0 0 600 185.94">
  <defs>
    <style>
      .cls-1 {
        fill: #ffc800;
      }

      .cls-2 {
        fill: #c7c7d1;
      }

      .cls-3 {
        fill: #292929;
      }

      .cls-4, .cls-5 {
        fill: #787882;
        stroke: #787882;
        stroke-miterlimit: 10;
        stroke-width: .25px;
      }

      .cls-5 {
        stroke-linecap: round;
      }
    </style>
  </defs>
  <g id="Layer_1-2" data-name="Layer 1">
    <g>
      <path class="cls-3" d="m26.46,89.14c0,2.26-.37,4.15-1.1,5.68-.73,1.53-1.69,2.76-2.88,3.69-1.19.93-2.53,1.61-4.01,2.02-1.49.42-2.98.62-4.49.62H0v-42.09h12.6c1.31,0,2.69.14,4.16.42,1.47.28,2.8.8,4.01,1.58,1.21.77,2.22,1.87,3.03,3.3.81,1.43,1.22,3.27,1.22,5.53,0,2.5-.51,4.49-1.52,5.97-1.01,1.49-2.25,2.57-3.72,3.24v.12c.79.2,1.58.56,2.38,1.07.79.52,1.51,1.18,2.14,1.99.63.81,1.15,1.79,1.55,2.94.4,1.15.59,2.46.59,3.92Zm-9.81-17.75c0-1.63-.46-2.79-1.37-3.47-.91-.68-1.98-1.02-3.21-1.02h-3.21v9.16h3.27c1.15,0,2.19-.36,3.12-1.08.93-.72,1.4-1.92,1.4-3.59Zm.77,16.89c0-.96-.15-1.76-.45-2.42-.3-.66-.69-1.2-1.19-1.61-.5-.42-1.05-.73-1.66-.93-.61-.2-1.22-.3-1.81-.3h-3.45v10.29h3.57c1.39,0,2.57-.42,3.54-1.26.97-.84,1.46-2.09,1.46-3.77Z"/>
      <path class="cls-3" d="m32.25,101.15v-42.09h9.57v42.09h-9.57Z"/>
      <path class="cls-3" d="m64.14,67.14v34.01h-9.33v-34.01h-7.73v-8.09h24.79v8.09h-7.73Z"/>
      <path class="cls-3" d="m97.67,100.64c-1.86,1.09-4.24,1.63-7.13,1.63-2.46,0-4.69-.55-6.69-1.63-2-1.09-3.72-2.62-5.14-4.58-1.43-1.96-2.54-4.3-3.33-7.02-.79-2.71-1.19-5.7-1.19-8.95s.4-6.3,1.19-9.04c.79-2.73,1.9-5.07,3.33-7.02,1.43-1.94,3.14-3.45,5.14-4.52,2-1.07,4.23-1.61,6.69-1.61,2.81,0,5.16.51,7.05,1.52,1.88,1.01,3.4,2.27,4.55,3.78l-5.11,6.9c-.71-.95-1.52-1.7-2.41-2.26-.89-.55-2.01-.83-3.36-.83-1.27,0-2.37.34-3.3,1.01-.93.67-1.72,1.6-2.38,2.76-.65,1.17-1.14,2.56-1.46,4.16-.32,1.61-.48,3.32-.48,5.14s.16,3.53.48,5.11c.32,1.59.8,2.97,1.46,4.16.65,1.19,1.46,2.12,2.41,2.79.95.67,2.06,1.01,3.33,1.01s2.38-.32,3.33-.95c.95-.63,1.7-1.39,2.26-2.26l5.29,6.6c-1.15,1.63-2.66,2.98-4.52,4.07Z"/>
      <path class="cls-3" d="m136.69,79.98c0,3.33-.38,6.37-1.13,9.13-.75,2.76-1.82,5.1-3.21,7.04-1.39,1.94-3.08,3.45-5.08,4.52-2,1.07-4.25,1.61-6.75,1.61s-4.75-.53-6.75-1.61c-2-1.07-3.7-2.58-5.08-4.52-1.39-1.94-2.46-4.29-3.21-7.04-.75-2.75-1.13-5.8-1.13-9.13s.37-6.35,1.1-9.07c.73-2.71,1.79-5.03,3.18-6.96,1.39-1.92,3.08-3.41,5.08-4.46,2-1.05,4.27-1.58,6.81-1.58s4.75.53,6.75,1.58c2,1.05,3.7,2.54,5.08,4.46,1.39,1.92,2.46,4.24,3.21,6.96.75,2.72,1.13,5.74,1.13,9.07Zm-9.75,0c0-1.82-.14-3.52-.42-5.08-.28-1.57-.68-2.92-1.22-4.07-.54-1.15-1.2-2.05-1.99-2.71-.79-.65-1.72-.98-2.79-.98s-2.01.33-2.82.98c-.81.65-1.49,1.56-2.02,2.71-.54,1.15-.93,2.51-1.19,4.07-.26,1.57-.39,3.26-.39,5.08s.13,3.53.39,5.11c.26,1.59.65,2.95,1.19,4.1.54,1.15,1.21,2.06,2.02,2.73.81.67,1.75,1.01,2.82,1.01s2-.34,2.79-1.01c.79-.67,1.46-1.58,1.99-2.73.54-1.15.94-2.52,1.22-4.1.28-1.58.42-3.29.42-5.11Z"/>
      <path class="cls-3" d="m141.59,101.15v-42.09h9.57v42.09h-9.57Z"/>
      <path class="cls-3" d="m176.25,101.15l-9.75-25.62h-.18l.24,25.62h-8.5v-42.09h10.46l9.69,25.98h.18l-.18-25.98h8.2v42.09h-10.17Z"/>
      <path class="cls-3" d="m400.45,101.15l-1.72-7.67h-9.45l-1.72,7.67h-9.51l10.23-42.09h11.95l10.17,42.09h-9.93Zm-6.3-32.94h-.24l-3.57,17.89h7.19l-3.39-17.89Z"/>
      <path class="cls-3" d="m425.38,67.14v34.01h-9.33v-34.01h-7.73v-8.09h24.79v8.09h-7.73Z"/>
      <path class="cls-3" d="m437.66,101.15v-42.09h9.63v33.29h11.24v8.8h-20.87Z"/>
      <path class="cls-3" d="m484.19,101.15l-1.72-7.67h-9.45l-1.72,7.67h-9.51l10.23-42.09h11.95l10.17,42.09h-9.93Zm-6.3-32.94h-.24l-3.57,17.89h7.19l-3.39-17.89Z"/>
      <path class="cls-3" d="m516.4,101.15l-9.75-25.62h-.18l.24,25.62h-8.5v-42.09h10.46l9.69,25.98h.18l-.18-25.98h8.2v42.09h-10.17Z"/>
      <path class="cls-3" d="m548.19,67.14v34.01h-9.33v-34.01h-7.73v-8.09h24.79v8.09h-7.73Z"/>
      <path class="cls-3" d="m560.73,101.15v-42.09h9.57v42.09h-9.57Z"/>
      <path class="cls-3" d="m595.07,69.1c-.71-.83-1.55-1.48-2.5-1.93-.95-.46-1.94-.68-2.97-.68s-2.03.34-2.88,1.01c-.85.68-1.28,1.79-1.28,3.34,0,1.31.44,2.33,1.31,3.07.87.73,2.16,1.54,3.86,2.41.96.48,1.96,1.04,3.02,1.7,1.06.65,2.02,1.46,2.9,2.41.88.95,1.61,2.09,2.18,3.42.58,1.33.87,2.91.87,4.73,0,2.26-.36,4.26-1.08,5.98-.72,1.73-1.68,3.16-2.9,4.29-1.22,1.13-2.62,1.99-4.21,2.56-1.59.57-3.24.86-4.95.86-2.54,0-4.85-.48-6.93-1.43-2.08-.95-3.76-2.06-5.02-3.33l4.88-7.13c.91.95,1.96,1.71,3.15,2.29,1.19.58,2.4.86,3.63.86,1.15,0,2.12-.38,2.91-1.13.79-.75,1.19-1.8,1.19-3.15s-.48-2.49-1.43-3.3c-.95-.81-2.34-1.67-4.16-2.59-1.15-.55-2.23-1.17-3.24-1.84-1.01-.67-1.9-1.49-2.68-2.44-.77-.95-1.38-2.06-1.81-3.33-.44-1.27-.65-2.77-.65-4.52,0-2.34.39-4.35,1.16-6.03.77-1.68,1.78-3.06,3.03-4.13s2.64-1.86,4.16-2.38c1.53-.51,3.06-.77,4.61-.77,2.3,0,4.36.37,6.18,1.12,1.82.75,3.35,1.77,4.58,3.07l-4.93,6.98Z"/>
      <rect x="243.93" y="100.23" width="0" height="0"/>
      <path d="m243.93,100.23h0s0,0,0,0h0Z"/>
      <rect x="245.32" y="100.23" width="0" height="0"/>
      <path d="m245.33,100.23h0s0,0,0,0h0Z"/>
      <rect x="245.01" y="99.04" width="0" height="0"/>
      <path d="m245.01,99.04h0s0,0,0,0h0Z"/>
      <g>
        <path class="cls-1" d="m346.85,113.03c2.19-3.53,4.09-7.26,5.68-11.15h-137.22c1.58,3.89,3.48,7.62,5.68,11.15h125.87Z"/>
        <path class="cls-1" d="m354.55,51.82C345.12,21.78,317.06,0,283.92,0s-61.2,21.78-70.64,51.82h141.28Z"/>
        <path class="cls-1" d="m210.08,79.47c.35,4.8,1.15,9.46,2.37,13.96h142.92c1.22-4.5,2.02-9.17,2.37-13.96h-147.66Z"/>
        <path class="cls-1" d="m211.84,57.06c-1.12,4.77-1.78,9.72-1.92,14.8h147.99c-.15-5.08-.8-10.03-1.92-14.8h-144.15Z"/>
        <polygon class="cls-2" points="220.57 131.92 226.59 96.87 240.64 85.05 242.88 67.81 254.42 65.11 256.18 45.2 266.41 47.54 267.04 34.22 276.94 29.49 277.03 14.43 300.01 25.1 300.33 32.05 309.89 29.3 312.46 58.38 323.89 62.42 325.42 74.13 337.72 78.38 346.92 131.98 220.57 131.92"/>
        <polyline class="cls-5" points="321.87 77.02 320.29 65.4 308.75 61.33 306.26 34.85 296.52 37.64 301.21 127.4 321.59 127.4 315.6 74.87 321.86 77.02"/>
        <path class="cls-4" d="m270.53,52.66l-3.91,74.74h-20.38l5.26-46.12-6.89,5.75,2.17-16.01,11.65-2.72,1.69-18.02,10.41,2.36"/>
        <path class="cls-3" d="m339.25,77.24l-12.26-4.24-1.52-11.7-11.39-4.03-2.65-29.94-9.48,2.72-.28-5.94-25.97-12.07-.09,16.48-9.86,4.71-.59,12.41-10.16-2.32-.56,6.32-.06.65-1.2,13.58-11.49,2.69-2.3,17.71-14.02,11.79-7.57,36.19,15.02,20.9,12.35,5.26,3.19,8.2,8.97,1.08,2.36,8.65,13.55,3.2,6.19,6.4,11.51-4.63,7.77-.26,13.4-15.5,13.73-1.83,4.35-7.74,9.54-5.18,9.87-18.54-10.35-55.02Zm-94.64,9.81l-5.47,40.36h-13.74l5.05-28.54,14.15-11.82h0s0,0,0,0h0Zm84.08,40.36l-6.83-50.38-6.27-2.15,5.99,52.54h-20.38l-4.7-89.76-5.13,1.47,1.18,35.34-9.93-3.47v-5.51l-7.19,3.87.56-15.44-5.46-1.24-3.91,74.74h-20.38l5.26-46.12-6.89,5.75,2.17-16.01,11.65-2.72,1.69-18.02,10.41,2.36h0l.82-15.64,10.03-4.77.12-10.94,14.51,6.7.5,9.63,9.74-2.79,2.49,26.48,11.55,4.07,1.58,11.62,12.4,4.26,8.17,46.12h-13.74Z"/>
        <polygon class="cls-1" points="292.9 99.06 285.33 100.72 287.83 81.66 275.19 106.61 281.83 105.15 278.52 127 292.9 99.06"/>
      </g>
    </g>
  </g>
</svg>