<svg width="2433" height="608" viewBox="0 0 2433 608" fill="none" xmlns="http://www.w3.org/2000/svg">
<path d="M796.145 546.575C783.645 546.575 773.445 536.275 773.445 523.575C773.445 511.075 783.445 501.275 796.145 501.275C808.845 501.275 818.845 511.075 818.845 523.575C818.845 536.175 808.645 546.575 796.145 546.575Z" fill="#9857FF"/>
<path d="M923.145 546.576C894.445 546.576 864.945 537.476 849.545 523.976L846.445 521.276L861.545 494.676L866.145 498.276C877.745 507.376 900.345 516.576 924.545 516.576C952.445 516.576 965.945 509.076 965.945 493.576C965.945 478.876 949.545 475.176 922.645 470.476C891.745 465.076 853.245 458.276 853.245 416.876C853.245 384.276 882.245 363.176 927.145 363.176C951.445 363.176 976.745 369.776 991.445 380.076L995.145 382.676L980.145 410.076L975.645 407.076C962.245 398.176 945.045 393.276 927.245 393.276C901.745 393.276 887.145 401.676 887.145 416.276C887.145 431.976 904.045 436.076 931.945 441.076C962.145 446.476 999.745 453.176 999.745 492.876C999.745 509.176 992.445 522.776 978.645 532.276C965.245 541.676 946.045 546.576 923.145 546.576Z" fill="#9857FF"/>
<path d="M1032.84 607.875V365.175H1065.34V388.875C1080.54 372.575 1102.04 363.875 1127.24 363.875C1152.84 363.875 1176.14 372.775 1192.74 389.075C1209.64 405.575 1218.94 428.975 1218.94 454.875C1218.94 480.875 1209.64 504.375 1192.84 520.975C1176.14 537.475 1152.94 546.475 1127.34 546.475C1102.44 546.475 1081.54 538.175 1066.14 522.175V607.775H1032.84V607.875ZM1125.84 393.875C1109.14 393.875 1093.94 399.875 1083.14 410.675C1071.94 421.875 1066.04 437.175 1066.04 454.875C1066.04 490.775 1090.64 515.875 1125.94 515.875C1161.14 515.875 1185.84 490.775 1185.84 454.875C1185.84 437.175 1179.94 421.875 1168.74 410.675C1157.74 399.875 1142.54 393.875 1125.84 393.875Z" fill="#9857FF"/>
<path d="M1309.55 546.575C1267.95 546.575 1241.05 525.275 1241.05 492.275C1241.05 476.675 1246.75 463.675 1257.65 454.675C1269.95 444.475 1288.55 439.275 1312.95 439.275H1363.25V434.275C1363.25 407.975 1348.35 394.575 1319.05 394.575C1298.85 394.575 1278.35 401.575 1264.25 413.375L1259.55 417.375L1245.15 390.275L1248.25 387.675C1266.85 372.275 1293.15 363.875 1322.45 363.875C1370.55 363.875 1397.05 389.075 1397.05 434.875V545.175H1364.55V527.775C1351.85 539.975 1332.85 546.575 1309.55 546.575ZM1314.35 465.875C1279.05 465.875 1274.95 480.175 1274.95 490.875C1274.95 508.075 1289.05 517.875 1313.65 517.875H1313.75C1314.35 517.875 1314.95 517.875 1315.65 517.875C1338.35 517.875 1355.05 507.475 1363.95 487.775V465.875H1314.35Z" fill="#9857FF"/>
<path d="M1525.85 545.275C1472.75 545.275 1434.25 507.275 1434.25 454.875C1434.25 429.075 1443.75 405.775 1461.05 389.275C1478.15 372.875 1502.15 363.875 1528.65 363.875C1560.45 363.875 1586.15 376.475 1601.15 399.475L1603.95 403.675L1577.85 420.375L1575.15 416.275C1565.35 401.575 1548.45 393.175 1528.75 393.175C1511.25 393.175 1496.15 398.975 1485.15 409.975C1474.05 421.075 1468.15 436.375 1468.15 454.175C1468.15 472.175 1474.05 487.575 1485.35 498.575C1496.25 509.275 1511.65 515.175 1528.65 515.175C1548.45 515.175 1564.95 507.175 1575.05 492.675L1577.75 488.775L1603.75 505.375L1601.15 509.575C1587.05 532.275 1560.65 545.275 1528.75 545.275C1527.75 545.275 1526.85 545.275 1525.85 545.275Z" fill="#9857FF"/>
<path d="M1712.95 547.177C1685.65 547.177 1660.95 538.077 1643.55 521.477C1626.05 504.877 1616.45 481.477 1616.45 455.477C1616.45 402.777 1654.15 364.477 1706.05 364.477C1757.15 364.477 1794.25 401.977 1795.05 453.977C1795.05 456.977 1795.05 467.177 1795.05 467.177H1650.95C1655.75 496.877 1680.25 516.477 1713.55 516.477C1733.85 516.477 1751.45 509.277 1763.05 496.177L1766.75 491.977L1786.35 514.177L1783.45 517.477C1766.95 536.677 1741.85 547.177 1712.95 547.177ZM1762.65 439.877C1757.95 412.177 1735.75 393.177 1706.85 393.177C1678.15 393.177 1656.35 411.677 1651.15 439.877H1762.65Z" fill="#9857FF"/>
<path d="M1068.04 268.975V160.175C1068.04 143.275 1064.14 130.275 1056.44 121.675C1048.84 113.075 1037.34 108.775 1022.54 108.775C1005.84 108.775 992.144 114.175 982.744 124.275C973.344 134.475 968.344 149.475 968.344 167.775V269.075H931.344V160.175C931.344 126.075 915.944 108.775 885.544 108.775C868.844 108.775 855.144 114.175 845.744 124.275C836.344 134.475 831.344 149.475 831.344 167.775V269.075H794.344V75.4754H830.344V96.5754C844.944 82.1754 865.944 74.2754 890.244 74.2754C919.244 74.2754 942.144 85.5754 955.244 106.275C971.044 85.8754 996.544 74.2754 1026.24 74.2754C1050.44 74.2754 1069.64 81.2754 1083.34 94.9754C1097.64 109.375 1105.14 131.175 1105.04 157.875V268.975H1068.04Z" fill="#1D1F30"/>
<path d="M1242.45 270.775C1182.85 270.775 1141.25 230.275 1141.25 172.275C1141.25 115.475 1181.05 74.2754 1235.85 74.2754C1291.05 74.2754 1329.75 114.575 1329.95 172.275C1329.95 172.875 1329.85 173.575 1329.85 174.175C1329.75 174.775 1329.75 175.275 1329.75 175.775V176.075L1329.65 176.375C1329.45 177.375 1329.45 178.475 1329.45 179.775V186.075H1178.95C1184.15 216.875 1208.85 236.575 1242.95 236.575C1263.85 236.575 1281.35 229.075 1293.55 214.975L1298.35 209.675L1320.35 234.775L1317.05 239.075C1299.85 259.475 1273.35 270.775 1242.45 270.775ZM1293.05 155.375C1290.55 141.775 1284.25 130.175 1274.75 121.675C1264.45 112.475 1250.95 107.675 1235.95 107.675C1221.05 107.675 1207.75 112.475 1197.45 121.675C1187.95 130.175 1181.75 141.775 1179.25 155.375H1293.05Z" fill="#1D1F30"/>
<path d="M1640.75 268.976V160.176C1640.75 143.276 1636.85 130.276 1629.15 121.676C1621.55 113.076 1610.05 108.776 1595.25 108.776C1578.55 108.776 1564.85 114.176 1555.45 124.276C1546.05 134.476 1541.05 149.476 1541.05 167.776V269.076H1504.05V160.176C1504.05 126.076 1488.65 108.776 1458.25 108.776C1441.55 108.776 1427.85 114.176 1418.45 124.276C1409.05 134.476 1404.05 149.476 1404.05 167.776V269.076H1367.05V75.4758H1403.05V96.5758C1417.65 82.0758 1438.65 74.1758 1462.95 74.1758C1491.95 74.1758 1514.85 85.4758 1527.95 106.176C1543.75 85.7758 1569.25 74.1758 1598.95 74.1758C1623.15 74.1758 1642.35 81.1758 1656.05 94.8758C1670.35 109.276 1677.85 131.076 1677.75 157.776V268.876H1640.75V268.976Z" fill="#1D1F30"/>
<path d="M1723.55 335.776V75.4758H1759.55V99.2758C1775.55 82.8758 1797.35 74.1758 1823.05 74.1758C1878.95 74.1758 1919.45 115.376 1919.45 172.176C1919.45 229.276 1878.95 270.676 1823.05 270.676C1797.85 270.676 1776.45 262.376 1760.65 246.476V335.676H1723.55V335.776ZM1821.45 107.976C1785.45 107.976 1760.25 134.376 1760.25 172.276C1760.25 210.176 1785.45 236.576 1821.45 236.576C1857.45 236.576 1882.65 210.176 1882.65 172.276C1882.65 134.976 1856.95 107.976 1821.45 107.976Z" fill="#1D1F30"/>
<path d="M2044.74 270.775C1987.74 270.775 1946.34 229.375 1946.34 172.275C1946.34 115.475 1987.74 74.2754 2044.74 74.2754C2072.34 74.2754 2097.34 84.1754 2115.24 102.175C2133.04 120.075 2142.74 144.975 2142.64 172.375C2142.64 229.375 2101.44 270.775 2044.74 270.775ZM2044.74 107.975C2008.74 107.975 1983.54 134.375 1983.54 172.275C1983.54 210.175 2008.74 236.575 2044.74 236.575C2080.44 236.575 2105.44 210.175 2105.44 172.275C2105.34 134.375 2080.44 107.975 2044.74 107.975Z" fill="#1D1F30"/>
<path d="M2260.14 270.775C2203.14 270.775 2161.74 229.375 2161.74 172.275C2161.74 115.475 2203.14 74.2754 2260.14 74.2754C2316.84 74.2754 2358.04 115.475 2358.04 172.275C2358.04 229.375 2316.84 270.775 2260.14 270.775ZM2260.14 107.975C2224.14 107.975 2198.94 134.375 2198.94 172.275C2198.94 210.175 2224.14 236.575 2260.14 236.575C2295.84 236.575 2320.84 210.175 2320.84 172.275C2320.84 134.375 2295.94 107.975 2260.14 107.975Z" fill="#1D1F30"/>
<path d="M2432.34 1.17578H2395.34V268.976H2432.34V1.17578Z" fill="#1D1F30"/>
<path d="M606.657 531.921C606.657 573.755 572.926 607.524 531.14 607.524H75.5184C33.7321 607.524 0.000976562 573.755 0.000976562 531.921V75.7793C0.000976562 33.9454 33.9838 0.175781 75.5184 0.175781H531.14C572.926 0.175781 606.657 33.9454 606.657 75.7793V531.921Z" fill="#2E3349"/>
<path d="M0 304.607V531.922C0 573.756 33.9828 607.526 75.7691 607.526H531.139C572.925 607.526 606.908 573.756 606.908 531.922V304.607H0Z" fill="url(#paint0_linear_501_155)"/>
<path opacity="0.3" d="M534.665 526.377C534.665 535.702 528.372 543.262 520.568 543.262H442.03C434.227 543.262 427.934 535.702 427.934 526.377V81.3243C427.934 71.9998 434.227 64.4395 442.03 64.4395H520.568C528.372 64.4395 534.665 71.9998 534.665 81.3243V526.377Z" fill="white"/>
<defs>
<linearGradient id="paint0_linear_501_155" x1="303.443" y1="172.64" x2="303.443" y2="758.552" gradientUnits="userSpaceOnUse">
<stop stop-color="#AE61FF"/>
<stop offset="1" stop-color="#13EFD8"/>
</linearGradient>
</defs>
</svg>
