<svg width="222" height="59" viewBox="0 0 222 59" fill="none" xmlns="http://www.w3.org/2000/svg">
<path d="M117.497 36.9399L125.596 31.3889C126.811 30.5571 127.805 29.8332 128.58 29.2153C129.354 28.5994 129.961 28.0475 130.403 27.5636C130.843 27.0797 131.148 26.6418 131.314 26.2499C131.48 25.8579 131.564 25.466 131.564 25.0741C131.564 24.6242 131.47 24.2022 131.284 23.8103C131.098 23.4184 130.805 23.0764 130.409 22.7825C130.013 22.4885 129.503 22.2586 128.88 22.0926C128.258 21.9267 127.515 21.8427 126.653 21.8427C125.398 21.8427 124.149 22.0186 122.904 22.3706C121.66 22.7225 120.391 23.2864 119.098 24.0603L116.953 20.5349C118.394 19.6451 119.953 18.9492 121.634 18.4493C123.315 17.9494 125.08 17.6995 126.933 17.6995C128.55 17.6995 129.953 17.8934 131.144 18.2793C132.334 18.6672 133.319 19.1931 134.097 19.859C134.876 20.5249 135.456 21.2988 135.838 22.1786C136.221 23.0604 136.411 23.9943 136.411 24.9841C136.411 25.748 136.283 26.4778 136.029 27.1717C135.774 27.8676 135.328 28.5874 134.692 29.3313C134.055 30.0752 133.195 30.875 132.112 31.7329C131.029 32.5887 129.665 33.5605 128.02 34.6483L124.669 36.8519H137.251V40.9352H117.497V36.9399Z" fill="url(#paint0_linear_4888_13913)"/>
<path d="M141.292 29.4054C141.292 27.5557 141.572 25.896 142.13 24.4263C142.689 22.9586 143.483 21.7128 144.512 20.689C145.541 19.6652 146.789 18.8853 148.26 18.3474C149.729 17.8095 151.376 17.5396 153.199 17.5396C155.022 17.5396 156.668 17.8095 158.138 18.3474C159.607 18.8853 160.858 19.6672 161.887 20.689C162.915 21.7128 163.71 22.9586 164.268 24.4263C164.827 25.894 165.107 27.5537 165.107 29.4054C165.107 31.257 164.827 32.9147 164.268 34.3845C163.71 35.8522 162.915 37.096 161.887 38.1138C160.858 39.1316 159.609 39.9095 158.138 40.4494C156.67 40.9873 155.022 41.2572 153.199 41.2572C151.376 41.2572 149.731 40.9873 148.26 40.4494C146.791 39.9115 145.541 39.1336 144.512 38.1138C143.483 37.096 142.689 35.8522 142.13 34.3845C141.572 32.9167 141.292 31.257 141.292 29.4054ZM145.951 29.3914C145.951 30.6452 146.119 31.751 146.457 32.7108C146.795 33.6706 147.278 34.4765 147.904 35.1263C148.53 35.7782 149.291 36.2721 150.181 36.6101C151.072 36.948 152.077 37.116 153.195 37.116C154.314 37.116 155.317 36.948 156.209 36.6101C157.1 36.2721 157.86 35.7782 158.487 35.1263C159.113 34.4745 159.595 33.6706 159.934 32.7108C160.272 31.751 160.44 30.6452 160.44 29.3914C160.44 28.1376 160.272 27.0498 159.934 26.094C159.595 25.1402 159.113 24.3343 158.487 23.6784C157.86 23.0225 157.1 22.5246 156.209 22.1887C155.317 21.8508 154.314 21.6828 153.195 21.6828C152.077 21.6828 151.074 21.8508 150.181 22.1887C149.289 22.5266 148.53 23.0245 147.904 23.6784C147.278 24.3343 146.793 25.1402 146.457 26.094C146.119 27.0478 145.951 28.1476 145.951 29.3914Z" fill="url(#paint1_linear_4888_13913)"/>
<path d="M170.246 36.9399L178.345 31.3889C179.56 30.5571 180.555 29.8332 181.329 29.2153C182.104 28.5994 182.71 28.0475 183.152 27.5636C183.592 27.0797 183.897 26.6418 184.063 26.2499C184.229 25.8579 184.313 25.466 184.313 25.0741C184.313 24.6242 184.219 24.2022 184.033 23.8103C183.847 23.4184 183.554 23.0764 183.158 22.7825C182.762 22.4885 182.252 22.2586 181.629 22.0926C181.007 21.9267 180.264 21.8427 179.402 21.8427C178.147 21.8427 176.898 22.0186 175.654 22.3706C174.409 22.7225 173.14 23.2864 171.847 24.0603L169.702 20.5349C171.143 19.6451 172.702 18.9492 174.383 18.4493C176.064 17.9494 177.829 17.6995 179.682 17.6995C181.299 17.6995 182.702 17.8934 183.893 18.2793C185.083 18.6672 186.068 19.1931 186.847 19.859C187.625 20.5249 188.205 21.2988 188.588 22.1786C188.97 23.0604 189.16 23.9943 189.16 24.9841C189.16 25.748 189.032 26.4778 188.778 27.1717C188.524 27.8676 188.077 28.5874 187.441 29.3313C186.805 30.0752 185.944 30.875 184.861 31.7329C183.779 32.5887 182.414 33.5605 180.769 34.6483L177.419 36.8519H190.001V40.9352H170.246V36.9399Z" fill="url(#paint2_linear_4888_13913)"/>
<path d="M194.954 31.9469L208.388 17.9814H213.047V31.9469H218V36.0301H213.047V40.9352H208.388V36.0301H194.926L194.956 31.9469H194.954ZM208.388 31.9469V23.8703L200.539 31.9469H208.388Z" fill="url(#paint3_linear_4888_13913)"/>
<mask id="mask0_4888_13913" style="mask-type:luminance" maskUnits="userSpaceOnUse" x="4" y="8" width="106" height="43">
<path d="M109.226 8.22754H4V50.3179H109.226V8.22754Z" fill="white"/>
</mask>
<g mask="url(#mask0_4888_13913)">
<path d="M51.6314 24.9885V28.9318C51.6314 31.5333 49.9753 32.8431 46.661 32.861H41.7447C38.5363 32.8431 36.8802 31.6113 36.7743 29.1657V26.4082H41.4989V27.718C41.5349 28.6558 42.1981 29.1237 43.4947 29.1237H44.8951C46.2595 29.1237 46.9247 28.5958 46.8908 27.538V25.7603C46.8548 24.6305 45.3445 23.7107 42.358 23.0028C38.7301 22.341 36.8642 20.5953 36.7583 17.7638V14.8963C36.7583 12.2948 38.4145 10.985 41.7287 10.967H46.6451C49.9573 10.985 51.6154 12.2948 51.6154 14.8963V17.3919H46.8908V16.0961C46.8548 15.1583 46.1916 14.6904 44.8951 14.6904H43.4947C42.1302 14.6904 41.465 15.2183 41.4989 16.2761V17.0339C41.5349 18.3477 43.0332 19.3275 45.9958 19.9694C49.7176 20.4653 51.5954 22.139 51.6294 24.9865L51.6314 24.9885Z" fill="#65487D"/>
<path d="M68.3086 16.2482L73.8023 32.8592H68.3945L67.1339 28.6679H61.0089L59.6964 32.8592H54.4644L61.6561 11.0371H61.6921L68.3066 16.2482H68.3086ZM66.0871 25.1126L64.1453 18.6198L62.1156 25.1126H66.0871Z" fill="#65487D"/>
<path d="M87.7505 14.6483H84.0068V32.8729H79.3521V14.6483H73.7705V10.981H83.0978L87.7525 14.6483H87.7505Z" fill="#65487D"/>
<path d="M107.786 24.9885V28.9318C107.786 31.5333 106.129 32.8431 102.815 32.861H97.8989C94.6905 32.8431 93.0344 31.6113 92.9286 29.1657V26.4082H97.6532V27.718C97.6891 28.6558 98.3524 29.1237 99.6489 29.1237H101.049C102.414 29.1237 103.079 28.5958 103.045 27.538V25.7603C103.009 24.6305 101.499 23.7107 98.5122 23.0028C94.8843 22.341 93.0185 20.5953 92.9126 17.7638V14.8963C92.9126 12.2948 94.5687 10.985 97.8829 10.967H102.799C106.111 10.985 107.77 12.2948 107.77 14.8963V17.3919H103.045V16.0961C103.009 15.1583 102.346 14.6904 101.049 14.6904H99.6489C98.2844 14.6904 97.6192 15.2183 97.6532 16.2761V17.0339C97.6891 18.3477 99.1874 19.3275 102.15 19.9694C105.872 20.4653 107.75 22.139 107.784 24.9865L107.786 24.9885Z" fill="#65487D"/>
<path d="M43.2569 50.2197C42.0124 50.2197 40.9516 50.0037 40.0746 49.5678C39.1976 49.1339 38.4824 48.562 37.929 47.8521C37.3757 47.1422 36.9681 46.3744 36.7064 45.5505C36.4447 44.7267 36.3149 43.9248 36.3149 43.147V42.731C36.3149 41.8772 36.4487 41.0333 36.7164 40.2035C36.9841 39.3736 37.3936 38.6198 37.949 37.9399C38.5024 37.262 39.2116 36.7181 40.0766 36.3082C40.9416 35.9003 41.9644 35.6943 43.1471 35.6943C44.3297 35.6943 45.4544 35.9203 46.3754 36.3742C47.2963 36.8261 48.0295 37.456 48.5769 38.2599C49.1242 39.0637 49.4539 40.0075 49.5657 41.0893H46.8788C46.7909 40.4614 46.5772 39.9335 46.2355 39.5056C45.8939 39.0777 45.4584 38.7518 44.929 38.5258C44.3996 38.2998 43.8063 38.1859 43.1471 38.1859C42.4878 38.1859 41.8965 38.3058 41.3751 38.5438C40.8517 38.7838 40.4162 39.1157 40.0686 39.5436C39.721 39.9715 39.4553 40.4734 39.2755 41.0533C39.0957 41.6312 39.0058 42.2671 39.0058 42.959C39.0058 43.6509 39.0957 44.2668 39.2755 44.8446C39.4553 45.4225 39.727 45.9285 40.0866 46.3624C40.4481 46.7963 40.8916 47.1322 41.421 47.3722C41.9504 47.6101 42.5617 47.7301 43.2589 47.7301C44.2798 47.7301 45.1368 47.4762 45.834 46.9663C46.5312 46.4564 46.9547 45.7445 47.1026 44.8247H49.7895C49.6656 45.8065 49.336 46.7043 48.8006 47.5222C48.2652 48.34 47.5321 48.9939 46.5991 49.4838C45.6662 49.9737 44.5515 50.2197 43.2589 50.2197H43.2569Z" fill="#65487D"/>
<path d="M63.45 50.2197C62.2174 50.2197 61.1506 50.0037 60.2496 49.5678C59.3467 49.1339 58.6015 48.558 58.0102 47.8421C57.4189 47.1262 56.9814 46.3564 56.6937 45.5325C56.408 44.7087 56.2642 43.9148 56.2642 43.147V42.731C56.2642 41.8892 56.414 41.0493 56.7117 40.2135C57.0093 39.3776 57.4608 38.6198 58.0641 37.9399C58.6674 37.262 59.4166 36.7181 60.3136 36.3082C61.2085 35.9003 62.2553 35.6943 63.45 35.6943C64.6446 35.6943 65.6914 35.8983 66.5944 36.3082C67.4974 36.7161 68.2485 37.26 68.8518 37.9399C69.4551 38.6198 69.9066 39.3756 70.2043 40.2135C70.5019 41.0493 70.6518 41.8892 70.6518 42.731V43.147C70.6518 43.9148 70.5059 44.7087 70.2123 45.5325C69.9206 46.3564 69.4771 47.1262 68.8878 47.8421C68.2964 48.558 67.5493 49.1339 66.6483 49.5678C65.7454 50.0017 64.6786 50.2197 63.448 50.2197H63.45ZM63.45 47.7301C64.1472 47.7301 64.7745 47.6041 65.3358 47.3522C65.8952 47.1002 66.3706 46.7523 66.7642 46.3044C67.1557 45.8585 67.4554 45.3486 67.6592 44.7767C67.8649 44.2048 67.9668 43.5989 67.9668 42.957C67.9668 42.2771 67.8609 41.6492 67.6492 41.0713C67.4374 40.4934 67.1358 39.9875 66.7442 39.5536C66.3527 39.1197 65.8792 38.7838 65.3258 38.5438C64.7725 38.3058 64.1472 38.1859 63.45 38.1859C62.7528 38.1859 62.1435 38.3058 61.5841 38.5438C61.0247 38.7838 60.5493 39.1197 60.1557 39.5536C59.7642 39.9875 59.4645 40.4934 59.2608 41.0713C59.055 41.6492 58.9531 42.2791 58.9531 42.957C58.9531 43.5989 59.055 44.2048 59.2608 44.7767C59.4665 45.3486 59.7642 45.8585 60.1557 46.3044C60.5473 46.7503 61.0228 47.1002 61.5841 47.3522C62.1435 47.6041 62.7668 47.7301 63.45 47.7301Z" fill="#65487D"/>
<path d="M78.229 49.8617V36.0942H82.5781L88.2896 47.6361H88.9248L88.5513 47.9761V36.0942H91.0524V49.8617H86.6674L80.9559 38.3198H80.3207L80.6942 37.9799V49.8617H78.231H78.229Z" fill="#65487D"/>
<path d="M99.4492 49.8617V36.0942H102.1V49.8617H99.4492ZM101.727 38.3578V36.0942H107.438V38.3578H101.727ZM101.727 44.1288V41.8652L107.176 41.8472V44.1288H101.727Z" fill="#65487D"/>
<path d="M18.9594 46.8458C9.34038 43.6264 4.14032 33.0884 7.34866 23.3161C10.523 13.6479 20.9491 8.3789 30.5502 11.5883C33.1592 12.4602 35.4446 13.8679 37.3284 15.6496C37.2765 15.3136 37.2485 14.9617 37.2485 14.5938C37.2485 13.8859 37.3464 13.242 37.5382 12.6561C35.7143 11.2224 33.6227 10.0726 31.3013 9.29473C20.4197 5.6534 8.67115 11.6163 5.06527 22.6103C1.44939 33.6323 7.34866 45.5061 18.2522 49.1514C25.1763 51.467 32.442 49.8993 37.744 45.6241C37.2585 44.9362 36.8849 44.2043 36.6272 43.4245C31.8986 47.4397 25.2662 48.9555 18.9614 46.8458H18.9594Z" fill="#65487D"/>
<path d="M30.6837 23.1687C29.9905 22.5928 29.1854 22.2669 28.4802 22.0249L29.1714 19.9113C29.2293 19.7353 29.1334 19.5454 28.9576 19.4854L26.9999 18.8315C26.914 18.8035 26.8221 18.8095 26.7422 18.8495C26.6623 18.8895 26.6003 18.9615 26.5724 19.0454L25.8851 21.1431L25.0261 20.8551L25.7113 18.7595C25.7693 18.5835 25.6734 18.3936 25.4976 18.3336L23.5298 17.6757C23.4439 17.6477 23.352 17.6537 23.2721 17.6937C23.1922 17.7337 23.1303 17.8057 23.1023 17.8897L22.4131 19.9933L18.967 18.8415C18.8811 18.8135 18.7892 18.8195 18.7093 18.8595C18.6294 18.8995 18.5675 18.9715 18.5395 19.0554L17.8343 21.2091C17.7764 21.385 17.8723 21.575 18.0481 21.635L18.4536 21.769C18.7493 21.8669 19.039 21.9629 19.3306 22.0629C19.7322 22.2009 19.9619 22.5648 19.92 22.9907C19.912 23.0747 19.884 23.1647 19.856 23.2527C19.6003 24.0345 19.3446 24.8164 19.0869 25.5983C18.5076 27.3639 17.9083 29.1896 17.3309 30.9913C17.241 31.2712 17.0592 31.4892 16.8195 31.6012C16.5978 31.7051 16.356 31.7091 16.1163 31.6132C15.8666 31.5132 15.6109 31.4332 15.3652 31.3532C15.2613 31.3212 15.1574 31.2872 15.0535 31.2532C15.0156 31.2412 14.9756 31.2312 14.9356 31.2212L14.8957 31.2112C14.7239 31.1672 14.5441 31.2632 14.4882 31.4332L13.785 33.5828C13.727 33.7588 13.8229 33.9487 13.9987 34.0087L17.4628 35.1665L16.7656 37.2961C16.7076 37.4721 16.8035 37.662 16.9793 37.722L18.9431 38.3779C19.029 38.4059 19.1209 38.3999 19.2008 38.3599C19.2807 38.3199 19.3426 38.2479 19.3706 38.164L20.0638 36.0463L20.9188 36.3323L20.2236 38.4539C20.1657 38.6299 20.2616 38.8198 20.4374 38.8798L22.3971 39.5357C22.4311 39.5477 22.4671 39.5537 22.505 39.5537C22.5569 39.5537 22.6089 39.5417 22.6568 39.5177C22.7367 39.4777 22.7987 39.4057 22.8266 39.3217L23.5238 37.1901C23.5238 37.1901 23.5338 37.1941 23.5378 37.1961C24.5746 37.5501 25.6294 37.734 26.6762 37.736C27.6691 37.73 28.4302 37.4961 29.0795 36.9702C30.0664 36.1703 30.6797 35.1445 30.9014 33.9227C31.1451 32.585 30.8015 31.4532 29.8786 30.5553C29.7387 30.4194 29.5929 30.2874 29.4471 30.1614C30.8954 29.6995 31.8064 28.6657 32.0941 27.146C32.3937 25.5603 31.9063 24.1845 30.6837 23.1707V23.1687ZM22.1614 29.6595C22.3871 29.7335 22.6109 29.8075 22.8366 29.8815C23.5238 30.1074 24.233 30.3394 24.9203 30.5873C25.5455 30.8133 25.999 31.2212 26.2667 31.8031C26.4645 32.229 26.4845 32.685 26.3266 33.0869C26.1648 33.4968 25.8292 33.8248 25.3797 34.0067C24.8503 34.2227 24.299 34.2407 23.7416 34.0607C23.0604 33.8407 22.3831 33.6128 21.7059 33.3848L21.0167 33.1529L22.1614 29.6575V29.6595ZM26.4265 27.7719C26.1349 27.9238 25.8612 27.9478 25.5675 27.8478C24.9342 27.6319 24.301 27.4199 23.6657 27.21L23.0324 26.998L24.1232 23.6666L24.7544 23.8786C25.3817 24.0885 26.007 24.2985 26.6363 24.5045C26.9479 24.6064 27.1617 24.7964 27.3075 25.1023C27.735 25.9962 27.2995 27.3199 26.4285 27.7739L26.4265 27.7719Z" fill="#65487D"/>
</g>
<defs>
<linearGradient id="paint0_linear_4888_13913" x1="111.117" y1="29.3173" x2="221.498" y2="29.3173" gradientUnits="userSpaceOnUse">
<stop stop-color="#A53AD8"/>
<stop offset="1" stop-color="#FFB54A"/>
</linearGradient>
<linearGradient id="paint1_linear_4888_13913" x1="111.117" y1="29.3974" x2="221.498" y2="29.3974" gradientUnits="userSpaceOnUse">
<stop stop-color="#A53AD8"/>
<stop offset="1" stop-color="#FFB54A"/>
</linearGradient>
<linearGradient id="paint2_linear_4888_13913" x1="111.117" y1="-34.729" x2="221.498" y2="-34.729" gradientUnits="userSpaceOnUse">
<stop stop-color="#A53AD8"/>
<stop offset="1" stop-color="#FFB54A"/>
</linearGradient>
<linearGradient id="paint3_linear_4888_13913" x1="111.117" y1="29.4573" x2="221.498" y2="29.4573" gradientUnits="userSpaceOnUse">
<stop stop-color="#A53AD8"/>
<stop offset="1" stop-color="#FFB54A"/>
</linearGradient>
</defs>
</svg>
